<?xml version="1.0" encoding="UTF-8"?>
<svg width="54px" height="33px" viewBox="0 0 54 33" version="1.1" xmlns="http://www.w3.org/2000/svg" xmlns:xlink="http://www.w3.org/1999/xlink">
    <title>leaf</title>
    <g id="Page-1" stroke="none" stroke-width="1" fill="none" fill-rule="evenodd">
        <g id="leaf" fill="#000000" fill-rule="nonzero">
            <path d="M42.5130147,8.46830339 C40.4488405,6.40372462 38.034832,4.68298184 35.2664458,3.28419456 C29.7296735,0.561638762 24.091434,-0.469869174 18.3653573,0.195922312 C15.5969711,0.525692274 13.0890677,1.4227916 10.828017,2.88253162 C10.1298628,3.35139886 9.50894463,3.85308682 8.99403691,4.37821813 C7.64467582,5.64103391 6.65120681,7.04607275 6,8.56520262 C6.52096545,8.0400713 7.06464742,7.57120406 7.64467582,7.17422979 C8.86985329,6.17866835 10.2540464,5.44567255 11.7972551,4.98149398 C13.9204922,4.31726539 16.1815428,4.05469973 18.5531472,4.18285678 C23.3857075,4.51262674 28.1834359,5.87390464 32.95239,8.26669047 C36.2947468,9.93273208 39.317558,12.0879585 42.0268812,14.74331 C42.991576,15.6779187 43.8896356,16.6422223 44.724089,17.6377838 C47.5636536,20.8917225 50.2017984,24.1159662 52.6506389,27.3027006 C53.1004259,27.8997249 53.5441552,28.4686171 54,29 C52.6506389,24.5426354 50.5864647,19.9274188 47.8180786,15.1465358 C46.4051112,12.8209543 44.630194,10.592272 42.5130147,8.46830339" id="Shape"></path>
            <path d="M48.2580318,26.6479821 C47.0967196,25.818777 45.7170929,25.1812278 44.1009588,24.7392458 C41.7146594,24.1277722 39.1676563,23.8774461 36.4614654,23.9843562 C31.1734018,24.2138218 25.9262721,25.2073034 20.7079478,26.9791427 C18.3216484,27.7588041 15.935349,28.3389869 13.5475336,28.7262101 C11.1021074,29.1186483 8.80980454,29.1994828 6.69033406,28.9765361 C4.94381762,28.8135634 3.62331778,28.2020898 2.72125417,27.1473305 C2.52719678,26.9791427 2.36800909,26.7601073 2.24369108,26.4797943 C1.65697071,24.7640176 1.65697071,22.9361158 2.24369108,21 C1.59177956,21.7692312 1.04750924,22.6297271 0.597235474,23.5723612 L0.597235474,23.6544994 C0.140897411,24.5958298 -0.0486117518,25.6805761 0.0105151068,26.8983082 C0.140897411,27.8957012 0.626040866,28.8644109 1.46139725,29.8057413 C1.59177956,29.9739291 1.75703155,30.1421169 1.94654071,30.3050896 C3.04266171,31.2477238 4.30403469,31.8839692 5.72459537,32.2203449 C8.55510422,32.9439437 11.3568077,33.1616752 14.1281897,32.882666 C17.029954,32.6636307 19.8316574,32.1134348 22.5439126,31.2216481 C27.5060205,29.5619341 32.3089407,28.2529373 36.9466089,27.3103032 C39.2616528,26.8722326 41.5251503,26.6479821 43.7158762,26.6479821 C45.9717932,26.6479821 48.0624583,27.1473305 50,28.1408121 C49.6740442,27.7588041 49.2889616,27.3976566 48.8326236,27.066496 C48.6431144,26.9543708 48.4475409,26.8161699 48.2580318,26.6479821" id="Shape"></path>
        </g>
    </g>
</svg>