<?xml version="1.0" encoding="UTF-8"?>
<svg width="263px" height="282px" viewBox="0 0 263 282" version="1.1" xmlns="http://www.w3.org/2000/svg" xmlns:xlink="http://www.w3.org/1999/xlink">
    <title>elmhurst-logo</title>
    <g id="Page-1" stroke="none" stroke-width="1" fill="none" fill-rule="evenodd">
        <g id="elmhurst-logo">
            <path d="M4,119 C2.73776224,119.172 2.07517483,119.258 2,119.258 C2.66958042,119.258 3.33741259,119.172 4,119" id="Shape" fill="#234266"></path>
            <path d="M17.1269047,158.37835 C18.4669134,158.511445 19.7520679,158.720825 21,159 C20.1654332,158.657524 19.2936439,158.37835 18.3748367,158.175461 L18.2514149,158.175461 L18.3748367,158.175461 C17.3796256,157.686906 16.3765781,157.337938 15.3833261,157.135049 C14.3724423,156.925668 13.3400087,156.95813 12.2605572,157.243797 C12.4212016,157.174004 12.5896822,157.10421 12.7581628,157.034417 C12.2605572,157.174004 12,157.204843 12,157.135049 L14.1275577,157.858955 C15.2148455,157.928749 16.2472791,158.099175 17.2581628,158.37835 L17.1269047,158.37835" id="Shape" fill="#B3D78A"></path>
            <path d="M65.118,9.126 C65.038,9.126 65,9.086 65,9 C65,9.086 65.038,9.126 65.118,9.126" id="Shape" fill="#B3D78A"></path>
            <path d="M62.9533408,10.7800098 C63.210153,11.5267026 63.399776,12.3130818 63.525196,13.1229789 L63.525196,13.0303773 C63.714819,13.6565409 63.8745801,14.310632 64,15 C63.904442,14.0578148 63.779022,13.1920627 63.6215006,12.3762861 L63.6215006,12.2792749 C63.589399,11.8427242 63.5393804,11.400294 63.4781635,10.9696227 C62.5248227,9.71729544 62.0350877,9.05732484 62,9 C62.3844718,9.44243018 62.6995147,10.033317 62.9533408,10.7800098" id="Shape" fill="#B3D78A"></path>
            <path d="M99.8053375,11 C99.9403454,10.6273526 100,10.2496863 100,9.8770389 C99.2025118,9.55834379 98.5274725,9.26474279 98,9 C98.2700157,9.15683814 98.5274725,9.3425345 98.7974882,9.55834379 C99.2056515,9.98494354 99.5353218,10.4654956 99.8053375,11" id="Shape" fill="#B3D78A"></path>
            <path d="M98.118,9.25 C98.04,9.172 98,9.078 98,9 C98,9.078 98.04,9.172 98.118,9.25" id="Shape" fill="#B3D78A"></path>
            <path d="M140.789639,6.82544561 L139.405024,3.18192993 L139,2 C139.135008,3.96004917 139.797488,5.96250768 141,8 C140.874411,7.60356484 140.789639,7.21450522 140.789639,6.82544561" id="Shape" fill="#B3D78A"></path>
            <path d="M171.469501,3.33158879 C171.866913,2.89046729 172.371534,2.47551402 173,2.09345794 L173,2 L171.591497,2.23626168 C171.271719,2.80897196 171.072089,3.39588785 171,4 C171.158965,3.77794393 171.31793,3.55663551 171.469501,3.33158879" id="Shape" fill="#B3D78A"></path>
            <path d="M19,57 C18.8773181,56.8320312 18.7546362,56.6191406 18.6376605,56.375 C17.8459344,56.2148438 17.3009986,56.0839844 17,56 C17.4293866,56.0839844 18.085592,56.4199219 19,57" id="Shape" fill="#B3D78A"></path>
            <path d="M17,56 C17,56 17.126,56.054 17.384,56.132 C17.126,56.054 17,56 17,56" id="Shape" fill="#B3D78A"></path>
            <path d="M48.541704,42.9297116 C48.6923767,43.2909549 48.8466368,43.6387567 49,44 C48.8852018,43.5009801 48.7515695,43.0355643 48.6008969,42.6087931 L48.541704,42.5029404 C48.3139013,41.3553626 48.0269058,40.3237188 47.6834081,39.3979278 C47.4977578,38.8938673 47.2627803,38.4267712 47,38 C47.2627803,39.0702884 47.5497758,40.1725007 47.858296,41.3217586 C48.1210762,41.8930272 48.3730942,42.4710165 48.6008969,43.0355643 L48.541704,42.9297116" id="Shape" fill="#B3D78A"></path>
            <path d="M29.7385208,121.363723 C28.7536431,121.282051 27.8380533,121.167142 27,121 C28.405554,121.363723 29.9133902,121.908832 31.5235084,122.636277 C32.0134726,122.758784 32.5100357,122.877493 33,123 C31.9491339,122.395062 30.8537256,121.849953 29.7385208,121.363723" id="Shape" fill="#B3D78A"></path>
            <path d="M52,92 L52.126,92 C52.218,92.078 52.258,92.132 52.258,92.132 C52.164,92.038 52.086,92 52,92" id="Shape" fill="#B3D78A"></path>
            <path d="M52.266,92.132 C52.172,92.038 52.094,92 52,92 C52.094,92 52.172,92.038 52.266,92.132" id="Shape" fill="#B3D78A"></path>
            <path d="M152,29 C151.365369,29.552356 150.730737,30.078534 150.097763,30.5850785 C150.097763,30.7539267 150.064623,30.8874346 150,31 C150.763877,30.3861257 151.443248,29.7212042 152,29" id="Shape" fill="#B3D78A"></path>
            <path d="M192.46875,25.6467266 L192.46875,25.882033 C192.146635,27.8906087 192,29.9198912 192,32 C192.310096,30.4865091 192.759615,28.9636059 193.389423,27.4482326 C193.793269,24.5586697 194,23.0884752 194,23 C193.483173,23.2428362 193.033654,23.4404936 192.620192,23.6023844 C192.516827,24.3233633 192.46875,25.0010458 192.46875,25.6467266" id="Shape" fill="#B3D78A"></path>
            <path d="M259,119.64 C258.527964,119.468 258.004474,119.258 257.436242,119 L257,119 C257.662192,119.258 258.33557,119.468 259,119.64" id="Shape" fill="#B3D78A"></path>
            <path d="M259.583243,121.918072 L259.482703,121.99759 C258.658919,122.251807 257.823784,122.586747 257,123 C258.102703,122.638554 259.242703,122.355422 260.408649,122.153012 L260.308108,122.153012 C261.005405,121.893976 261.759459,121.715663 262.588108,121.612048 C262.860541,121.508434 263,121.461446 263,121.461446 C262.588108,121.306024 262.176216,121.150602 261.757838,121 L261.657297,121 C260.958378,121.249398 260.274054,121.56506 259.583243,121.918072" id="Shape" fill="#B3D78A"></path>
            <path d="M262.693976,172.376 L262.538554,172.376 C262.077108,172.212 261.563855,172.078 261,172 C262.279518,172.508 262.948193,172.758 263,172.758 C262.948193,172.68 262.896386,172.546 262.844578,172.376 L262.618072,172.376 L262.693976,172.376" id="Shape" fill="#B3D78A"></path>
            <path d="M179.80713,129.443824 C190.385424,124.903794 200.446717,121.426417 210,119 C207.899027,119.0687 205.762089,119.188559 203.596678,119.371271 C198.948163,119.685536 194.137804,120.398844 189.167099,121.518504 C181.785221,123.196532 174.451297,126.017607 167.186306,129.997807 C159.933304,134.102252 153.810211,139.041326 148.847,144.819414 C145.72701,148.48535 143.23941,152.304764 141.388695,156.284964 C140.369679,158.516976 139.573946,160.756295 139,163 C140.528525,160.202312 142.377741,157.495249 144.543152,154.886121 C146.708563,152.276992 149.097258,149.787722 151.713734,147.428543 C156.934697,142.581556 162.952891,138.259318 169.772811,134.473523 C173.086114,132.612783 176.429389,130.927447 179.80713,129.443824" id="Shape" fill="#FFFFFF"></path>
            <path d="M144.655256,171.686873 C141.637558,174.895255 139.378526,178.374854 137.867364,182.105638 C137.011553,184.068885 136.391668,186.036754 136,188 C138.758641,182.954735 142.522667,178.464233 147.305957,174.533117 C151.703746,171.065846 156.817024,168.640297 162.647332,167.268798 C163.170071,167.136272 163.73136,167.003745 164.321946,166.871218 C170.875454,165.889595 177.267051,165.920415 183.495196,166.972924 C189.723341,168.020811 195.559818,169.36303 201,171.005747 C200.144189,170.47718 199.296088,169.953237 198.440277,169.429294 C194.31388,166.871218 189.621569,164.775445 184.381847,163.145057 C177.960952,160.978397 170.937134,160.454454 163.341233,161.567063 C159.666643,162.289796 156.190971,163.505653 152.914217,165.197681 C149.762366,167.033024 147.016061,169.199683 144.655256,171.686873" id="Shape" fill="#FFFFFF"></path>
            <path d="M127.383262,155.535335 C128.064675,151.531013 128.528986,147.402173 128.795212,143.144259 C129.402144,133.718841 128.658929,123.936573 126.57983,113.805046 C124.42625,103.668964 120.990665,94.4029903 116.26832,86.0162364 C113.041913,80.2732157 109.401904,75.1376007 105.360971,70.616984 C103.608315,68.6125453 101.819212,66.7432543 100,65 C104.716006,71.7740918 108.9265,79.3605887 112.628311,87.7534167 C114.181297,91.3659619 115.599585,95.1440252 116.873668,99.083051 C118.558182,104.124518 120.012918,109.380096 121.218859,114.868006 C123.175938,124.548534 124.353355,133.973952 124.754279,143.144259 C125.163126,152.314566 124.958703,160.927579 124.153685,169 C125.570389,164.734494 126.640048,160.244247 127.383262,155.535335" id="Shape" fill="#FFFFFF"></path>
            <path d="M80.8574035,145.886832 C87.1777028,149.94351 92.7969143,154.376535 97.7105342,159.194974 C100.132065,161.632911 102.302885,164.172114 104.213987,166.805026 C106.195649,169.372945 107.791487,172.107123 109,175 C108.876897,173.452295 108.560131,171.912148 108.043698,170.370489 C107.53327,168.76535 106.899739,167.188929 106.131095,165.64727 C104.665866,162.500472 102.817816,159.477612 100.577938,156.59078 C96.0456383,150.805026 90.4324318,145.762894 83.7308128,141.452295 C77.0276924,137.214245 70.2660231,133.972227 63.4397995,131.723219 C59.9268541,130.500472 56.5144929,129.502928 53.1952098,128.735122 C49.99903,128.027773 46.9439684,127.448895 44,127 C52.9369933,130.790667 62.4129385,135.41262 72.4353419,140.880975 C75.238192,142.415077 78.0530522,144.092764 80.8574035,145.886832" id="Shape" fill="#FFFFFF"></path>
            <path d="M113,195 C112.86643,193.651369 112.532505,192.283214 112.01065,190.87451 C111.083426,188.510651 109.663856,186.25192 107.745729,184.075788 C104.77302,180.690693 101.048591,177.979915 96.5584646,175.932939 C92.0683381,174.021127 87.615487,172.806157 83.1874861,172.301547 C80.281562,171.978657 77.5076548,171.920086 74.8704238,172.101806 C73.548702,172.172391 72.2627025,172.267005 71,172.396162 C78.3354781,174.566286 86.057688,177.341643 94.1821611,180.726737 C95.6980253,181.365009 97.1548702,182.069361 98.5387176,182.832284 C100.843577,184.110329 102.997781,185.454455 104.974928,186.857152 C108.273796,189.215003 110.949856,191.931789 113,195" id="Shape" fill="#FFFFFF"></path>
            <path d="M93.1877007,51.6734201 C94.5139405,53.1844474 96.0752299,54.5980389 97.8575593,55.9157413 C100.234517,57.6185468 102.78893,59.2022642 105.500561,60.6514275 C110.92538,63.4059204 116.147839,66.5362368 121.181946,70.0160846 C123.69433,71.8580841 125.719492,73.9305268 127.238753,76.2256797 C128.697305,78.5347521 129.621937,81.0649881 130.017319,83.827214 C130.351992,87.0472331 130.218123,90.2672523 129.621937,93.4872715 C129.226556,95.7282935 128.758014,97.8966253 128.228763,100 C129.688872,97.7636178 130.977753,95.2998856 132.101632,92.597977 L132.497014,91.4210152 C133.427872,88.9851217 133.919764,86.35745 133.986699,83.5302669 C134.114341,80.1710539 133.323579,76.8907173 131.603514,73.6706981 C129.74958,70.5109963 127.402198,67.8833246 124.556697,65.7814965 C122.508186,64.2642828 120.39274,62.9527669 118.20102,61.8361224 C114.437114,59.9260726 110.758822,58.3439018 107.183267,57.0988895 C104.337766,56.0487488 101.626135,54.9908751 99.0483732,53.9453741 C98.5860572,53.7458628 98.1175147,53.5463516 97.6551987,53.3530267 C96.7305667,52.889047 95.8370671,52.4297071 94.9793698,51.9765536 C93.9161986,51.3780197 92.924632,50.7191685 92,50 C92.3300033,50.586161 92.7316112,51.1491231 93.1877007,51.6734201" id="Shape" fill="#FFFFFF"></path>
            <path d="M104.734709,99.9561954 C106.327133,100.073948 108.055515,99.9561954 109.916729,99.5799613 C110.784046,99.4622087 111.546659,99.2827077 112.206132,99.0357144 C112.474922,98.9739661 112.737461,98.8791896 113,98.761437 C111.607605,98.8231853 110.013619,98.7327168 108.219602,98.4857235 C107.48668,98.4239752 106.827207,98.3004785 106.230244,98.1209775 C105.894256,98.0592292 105.594212,97.9644527 105.331672,97.840956 C103.470458,97.0497158 102.042121,95.8334173 101.04041,94.1777004 C99.3198412,90.6379415 98.2571832,86.5209074 97.8602492,81.8208543 C97.3289202,77.1193651 96.7929031,72.5700927 96.2615741,68.1787812 C95.999035,66.2200667 95.6317929,64.3245366 95.1629732,62.4964988 C95.1020267,62.2552495 95.0348292,61.979536 94.9723199,61.6707944 C94.6988417,60.6339968 94.3691052,59.6302274 93.9721712,58.6537422 C93.7705787,58.2272479 93.5689863,57.7950096 93.3736447,57.3742594 C93.1111057,56.8817087 92.7751182,56.4207503 92.3781842,56 C92.8423157,57.8912221 92.9407679,59.8427566 92.6719779,61.8617834 L92.2750439,68.2678137 C91.8781099,72.7280536 91.9093645,77.4281067 92.3781842,82.3708452 C92.6407233,84.8106223 93.1720523,87.2561434 93.9721712,89.6959204 C94.7660392,92.0796932 96.028727,94.2739129 97.7571089,96.2929397 C99.1479407,97.8122359 100.845068,98.8791896 102.84224,99.4952369 C103.439204,99.7364862 104.068985,99.888703 104.734709,99.9561954" id="Shape" fill="#FFFFFF"></path>
            <path d="M146.506803,91.2846462 C148.051512,88.974389 149.880098,87.0703152 151.9986,85.5510467 C156.875836,82.4669032 162.014298,80.0725589 167.404926,78.3751398 C172.023955,76.860147 176.553895,75.6743765 180.976627,74.8335055 C181.625918,74.7109379 182.291819,74.5883703 183,74.4672279 C180.304686,74.099525 177.479513,73.9484533 174.530522,74.0154379 C171.900137,74.1380055 169.204823,74.4059441 166.444579,74.8335055 C160.469588,75.7413611 154.624455,77.9461531 148.915221,81.4649841 C145.96019,83.6412721 143.748069,86.102601 142.274329,88.8247424 C140.734149,91.6138685 139.702833,94.4642784 139.18944,97.3645705 C138.805905,100.092413 139.006732,102.697687 139.773802,105.186095 C139.838731,105.42553 139.89762,105.664964 139.968589,105.910099 C141.060305,108.576658 142.688063,110.609 144.869984,112 C144.232773,111.09357 143.69069,110.118729 143.242226,109.089732 C142.657864,107.936741 142.304528,106.695387 142.18071,105.369947 C141.920993,103.004106 142.21091,100.609762 143.041399,98.1826381 C143.816018,95.7612149 144.966623,93.4623593 146.506803,91.2846462" id="Shape" fill="#FFFFFF"></path>
            <path d="M176.503934,96.3732982 C176.237734,98.8537227 175.792482,101.27137 175.185608,103.63208 C173.910064,108.531612 171.688559,112.626722 168.525844,115.921788 C166.904874,117.530633 165.054147,118.46061 162.967326,118.717558 C162.360452,118.717558 161.785269,118.648941 161.24653,118.523387 C159.698448,118.152564 158.28822,117.405079 157,116.292611 C157.408808,117.034256 157.947547,117.781742 158.616217,118.523387 C158.752486,118.717558 158.925199,118.865011 159.123265,118.990565 C160.070812,119.920542 161.24653,120.542473 162.656759,120.854899 C162.861163,120.854899 163.059228,120.884097 163.263632,120.946874 C164.545514,121.072428 165.825811,120.974613 167.101355,120.662187 C168.587641,120.234427 169.936073,119.606657 171.143482,118.802234 C173.575729,117.132072 175.556387,115.077947 177.110808,112.6603 C178.590755,110.242653 179.734783,107.630834 180.546061,104.836524 C181.221069,102.042214 181.591848,99.3150612 181.659983,96.6463054 C181.659983,94.1031038 181.691673,91.650418 181.75347,89.2955476 C181.827942,86.9976146 182.168615,84.7901974 182.769151,82.6864353 C183.444159,80.6337708 184.520052,78.740239 186,77 C185.33133,77.3766625 184.69435,77.8102623 184.087477,78.3066392 C182.805595,79.2366159 181.661567,80.3885023 180.652224,81.7506189 L180.652224,81.8484343 C179.229319,84.0149734 178.25642,86.3421051 177.712928,88.8283694 C177.178942,91.3087939 176.776473,93.8242568 176.503934,96.3732982" id="Shape" fill="#FFFFFF"></path>
            <path d="M230,113.59488 C228.912005,113.337424 227.864641,113.005364 226.836839,112.566518 C223.703775,111.263145 220.53008,109.60577 217.338328,107.617798 C215.163843,106.377326 212.823826,105.16026 210.331821,103.98269 C207.839816,102.743681 205.08898,101.841121 202.085332,101.280861 C201.308837,101.155059 200.545887,101.05705 199.775412,101 C198.940229,101 198.145677,101.029256 197.376707,101.086306 C195.847795,101.155059 194.367039,101.400813 192.967543,101.841121 C190.087291,102.582771 187.524559,103.829094 185.289881,105.571312 C182.979961,107.314994 181.386342,109.452174 180.49247,112.006258 C180.22762,112.812271 180.069612,113.622674 180.010924,114.434539 C179.946216,116.108005 180.168931,117.627875 180.680575,119 C180.680575,117.325071 181.032706,115.737911 181.732454,114.239984 C181.991285,113.748476 182.244097,113.308167 182.502929,112.936611 C183.720339,111.137343 185.377161,109.703779 187.492958,108.64616 C189.479338,107.651443 191.68392,106.937586 194.111217,106.503129 C195.26392,106.257375 196.451234,106.097928 197.667139,106.035026 C198.243491,106.035026 198.813823,106.06282 199.390174,106.131573 C199.966526,106.188623 200.571469,106.257375 201.212528,106.314425 C206.073141,107.434945 210.905163,109.017716 215.702573,111.074441 C220.572216,113.062414 225.33351,113.897684 230,113.59488" id="Shape" fill="#FFFFFF"></path>
            <path d="M202.244871,137.875015 C203.528932,137.748752 204.817536,137.453114 206.107654,136.995799 C207.391715,136.533864 208.621264,135.884075 209.775102,135.029496 C211.963154,133.394246 213.737823,131.534189 215.086996,129.435465 C216.377114,127.402951 217.500667,125.441268 218.463713,123.547335 C219.43433,121.581032 220.462487,119.842617 221.55727,118.338249 C222.711108,116.703 224.201103,115.620533 226,115.103165 C225.680499,115.030796 225.354941,115 225.03544,115 C223.875545,115 222.751992,115.264843 221.658723,115.78221 C221.078776,115.980842 220.56394,116.27494 220.109673,116.672204 C218.310776,117.97794 216.702672,119.517723 215.28233,121.285394 C212.644554,124.948537 209.775102,128.058899 206.693658,130.614938 C205.983488,131.204675 205.144608,131.661991 204.180048,131.985345 C203.339655,132.382609 202.435664,132.678247 201.471104,132.876879 C199.543498,133.328036 197.549266,133.525128 195.491437,133.458917 C191.557486,133.458917 187.826441,132.773714 184.289217,131.403307 L184,131.403307 C186.767999,134.278082 190.435447,136.27518 195.0084,137.386903 C197.323647,137.97664 199.737318,138.144477 202.244871,137.875015" id="Shape" fill="#FFFFFF"></path>
            <path d="M99.8900589,115 C99.8900589,114.936306 99.9195163,114.878537 99.9861831,114.808918 C101.040449,112.668505 101.276109,110.307386 100.676107,107.727041 L100.676107,107.350802 C99.8900589,104.57345 98.5691252,102.027173 96.7226088,99.6956788 C94.8140768,97.3064154 92.6094199,95.1645214 90.0962352,93.2788845 C87.5954535,91.3873225 84.7613377,89.806824 81.6000892,88.5581265 C77.0512403,86.919859 72.5333992,86.069619 68.0512171,86 C66.2775691,86 64.527177,86.069619 62.8186454,86.1970068 C56.7566143,86.6310144 51.4759805,88.1122689 47,90.6289202 C47.9209326,90.5015323 48.8775242,90.3800695 49.8651237,90.2526816 C50.0589226,90.1889876 50.2883806,90.1549188 50.5488464,90.1549188 C53.3224969,89.8482991 56.1581632,89.7149862 59.0589458,89.7786802 C60.3054607,89.8482991 61.5953865,89.906068 62.9101185,89.975687 C68.5178849,90.2823067 74.0837908,91.4154663 79.6248903,93.3662785 C82.260556,94.3779753 84.7613377,95.6681479 87.1287857,97.2427214 C89.5086367,98.7521197 91.6838362,100.390387 93.6574847,102.154561 C95.111752,103.474359 96.3582668,104.862294 97.4187347,106.30948 C97.8125341,106.8768 98.1753258,107.448565 98.5024584,108.004035 C99.6900584,110.157779 100.156726,112.384105 99.8900589,114.71708 L99.8900589,115" id="Shape" fill="#FFFFFF"></path>
            <path d="M86.4337502,121.481383 C86.1173001,121.809761 85.731861,122.04973 85.2864313,122.179186 C84.9639821,122.314958 84.5830423,122.382844 84.1376126,122.382844 C82.4158843,122.179186 80.6641607,121.481383 78.8764428,120.267332 C77.1547146,119.058017 75.4674808,117.682935 73.8087426,116.142085 C72.1515041,114.525455 70.6577399,112.823573 69.3094527,111.004865 C68.103643,109.061436 66.8318437,107.01381 65.4850562,104.868303 C64.1487671,102.784366 62.7134936,100.804626 61.183735,98.922768 C59.6614753,97.0424887 57.9622434,95.4021778 56.1160348,93.9892056 C55.4141456,93.458749 54.6522658,93.015123 53.8258962,92.6883239 C53.6969166,92.6141231 53.5979322,92.584127 53.5334424,92.584127 C53.4044627,92.5162412 53.2754831,92.4483554 53.1525025,92.3804696 C53.0235228,92.3188987 52.8945432,92.2873239 52.7715626,92.2873239 C52.7715626,92.2873239 52.7415673,92.2446979 52.6725782,92.1831271 C51.717229,91.9794696 50.8263696,91.9478948 50,92.0773515 C51.9106985,92.6883239 53.4389573,93.8913237 54.587776,95.7037172 C55.7950854,97.3819178 56.9484034,99.232201 58.0327323,101.241937 C59.0510716,103.321138 60.1354005,105.43507 61.2782201,107.582157 C62.3610492,109.727664 63.6388476,111.947373 65.1041163,114.230231 C66.8318437,116.579396 68.7065478,118.521246 70.7447262,120.063675 C72.7844043,121.678726 74.9575613,122.949611 77.2536989,123.893698 C78.3965186,124.368899 79.5798318,124.695698 80.7871413,124.899355 C81.6825,125.033548 82.5733594,125.033548 83.4702179,124.899355 C83.7866679,124.83147 84.1721071,124.769899 84.6115378,124.695698 C85.8893361,124.226812 86.8146901,123.424812 87.3950985,122.283383 L87.3950985,122.179186 C87.8990189,121.037757 88.0864894,119.927903 87.9635088,118.860675 C87.6470587,119.866332 87.1311401,120.742533 86.4337502,121.481383" id="Shape" fill="#FFFFFF"></path>
            <path d="M27.1948147,119.943859 C28.1022145,120.153014 29.0447494,120.282943 30.0178364,120.357415 C30.1492108,120.282943 30.2439225,120.282943 30.3050269,120.357415 C32.7812813,120.357415 35.2453148,120.184704 37.7093484,119.850373 C42.9734895,118.704776 48.0390414,118.295974 52.9075317,118.636643 C55.4448905,119.107241 57.908924,119.75055 60.3133808,120.555478 C62.7774143,121.42854 65.0581348,122.444207 67.1341556,123.581882 C69.2697532,124.80195 71.1257983,126.24385 72.6839596,127.932932 C73.4645679,128.812332 74.1397711,129.783633 74.7309558,130.861096 C75.2427049,131.876764 75.6429385,132.916199 75.8995768,134 C76.2219024,131.566201 75.7682024,129.110219 74.5400047,126.614624 C73.2980585,124.195085 71.5794982,122.071849 69.372103,120.252837 C67.2288674,118.432242 64.8244106,116.953899 62.1633155,115.808302 C59.5022203,114.596156 56.6730882,113.716756 53.6835571,113.184362 C50.5030749,112.843694 47.5196543,112.973623 44.7271848,113.586826 C41.9347153,114.255487 39.3393073,114.997036 36.9333229,115.808302 C32.1244094,117.697031 27.4820052,118.668333 23,118.736467 C23.5254975,119.009001 24.0739092,119.243508 24.6589835,119.441571 C25.5068066,119.645972 26.3485192,119.812345 27.1948147,119.943859" id="Shape" fill="#FFFFFF"></path>
            <path d="M72.0225809,155.899099 C74.4136787,154.488305 76.0738596,152.681415 77,150.462649 C75.4147849,151.942878 73.6140431,152.978092 71.6258866,153.588805 C71.4915729,153.656662 71.3572591,153.686645 71.2291924,153.686645 C69.100475,154.087475 67.0076788,153.718207 64.9570508,152.577262 C62.8954903,151.504175 60.869851,150.135989 58.8816945,148.453766 C57.8805883,147.652107 56.8872909,146.80784 55.8924318,145.938324 C54.8241687,145.00095 53.8293096,144.095138 52.9031691,143.225622 C49.1876749,139.329368 45.4971693,135.403131 41.8488319,131.445332 C39.9871803,129.565851 37.961541,127.926237 35.7719138,126.520177 C35.2409058,126.180892 34.6739767,125.843185 34.082059,125.510213 C33.6182078,125.306642 33.1481096,125.109383 32.6842585,124.905812 C31.4223336,124.437125 30.1900826,124.134136 29,124 C32.8560552,126.348168 36.1373723,129.731549 38.8595692,134.164346 C41.5864515,138.46143 44.9958352,142.782184 49.1142708,147.147125 C50.2434437,148.218634 51.3413809,149.192303 52.4080823,150.061819 C53.531008,150.937648 54.6898549,151.775603 55.8924318,152.577262 C58.2101256,154.253172 60.7730201,155.529831 63.554565,156.399347 C66.4829179,157.341454 69.3081929,157.175757 72.0225809,155.899099" id="Shape" fill="#FFFFFF"></path>
            <path d="M201.513015,159.468303 C199.448841,157.403725 197.034832,155.682982 194.266446,154.284195 C188.729673,151.561639 183.091434,150.530131 177.365357,151.195922 C174.596971,151.525692 172.089068,152.422792 169.828017,153.882532 C169.129863,154.351399 168.508945,154.853087 167.994037,155.378218 C166.644676,156.641034 165.651207,158.046073 165,159.565203 C165.520965,159.040071 166.064647,158.571204 166.644676,158.17423 C167.869853,157.178668 169.254046,156.445673 170.797255,155.981494 C172.920492,155.317265 175.181543,155.0547 177.553147,155.182857 C182.385708,155.512627 187.183436,156.873905 191.95239,159.26669 C195.294747,160.932732 198.317558,163.087959 201.026881,165.74331 C201.991576,166.677919 202.889636,167.642222 203.724089,168.637784 C206.563654,171.891722 209.201798,175.115966 211.650639,178.302701 C212.100426,178.899725 212.544155,179.468617 213,180 C211.650639,175.542635 209.586465,170.927419 206.818079,166.146536 C205.405111,163.820954 203.630194,161.592272 201.513015,159.468303" id="Shape" fill="#FFFFFF"></path>
            <path d="M207.258032,177.647982 C206.09672,176.818777 204.717093,176.181228 203.100959,175.739246 C200.714659,175.127772 198.167656,174.877446 195.461465,174.984356 C190.173402,175.213822 184.926272,176.207303 179.707948,177.979143 C177.321648,178.758804 174.935349,179.338987 172.547534,179.72621 C170.102107,180.118648 167.809805,180.199483 165.690334,179.976536 C163.943818,179.813563 162.623318,179.20209 161.721254,178.14733 C161.527197,177.979143 161.368009,177.760107 161.243691,177.479794 C160.656971,175.764018 160.656971,173.936116 161.243691,172 C160.59178,172.769231 160.047509,173.629727 159.597235,174.572361 L159.597235,174.654499 C159.140897,175.59583 158.951388,176.680576 159.010515,177.898308 C159.140897,178.895701 159.626041,179.864411 160.461397,180.805741 C160.59178,180.973929 160.757032,181.142117 160.946541,181.30509 C162.042662,182.247724 163.304035,182.883969 164.724595,183.220345 C167.555104,183.943944 170.356808,184.161675 173.12819,183.882666 C176.029954,183.663631 178.831657,183.113435 181.543913,182.221648 C186.50602,180.561934 191.308941,179.252937 195.946609,178.310303 C198.261653,177.872233 200.52515,177.647982 202.715876,177.647982 C204.971793,177.647982 207.062458,178.14733 209,179.140812 C208.674044,178.758804 208.288962,178.397657 207.832624,178.066496 C207.643114,177.954371 207.447541,177.81617 207.258032,177.647982" id="Shape" fill="#FFFFFF"></path>
            <path d="M88.0648038,168.125188 C89.5402019,168.756582 90.8897571,169.530408 92.1221485,170.465753 C92.4331392,170.659576 92.7325583,170.906261 93.043549,171.221958 C94.5232865,172.467127 95.4157577,174.061765 95.7151767,176 C96.1505638,174.624147 96.0825797,173.120547 95.540154,171.49801 C95.2855755,170.935628 95.0093,170.37912 94.7040951,169.816738 C93.4774896,167.821237 91.8502124,166.169333 89.8164774,164.849278 C85.6925952,162.107851 80.9915719,160.828909 75.7076218,161.018328 C70.4757446,161.322278 65.8369195,162.670232 61.7795748,165.038696 C58.9430497,166.662702 56.4854994,168.509898 54.401138,170.562665 C53.5361497,171.377604 52.7333596,172.214569 52,173.092648 C59.067446,169.283724 67.0013268,166.978399 75.7929635,166.169333 C80.2220506,165.974041 84.3141105,166.633335 88.0648038,168.125188" id="Shape" fill="#FFFFFF"></path>
            <path d="M94.3745099,189.870907 C92.843182,190.068485 91.1876114,189.739188 89.4048043,188.895267 C85.9664267,187.201298 82.3768622,185.084604 78.6226388,182.546714 C74.8624278,180.135949 71.114192,177.922763 67.3554779,175.905623 C65.4484283,174.931515 63.5773042,174.052367 61.7241428,173.268179 C61.2211847,173.13646 60.7122389,172.974108 60.1973056,172.778061 C58.8006986,172.263438 57.4025946,172 56,172 C57.5956946,172.848516 59.1165443,173.926774 60.5835056,175.217927 L65.2613158,179.226169 C68.4362392,181.95551 71.9749091,184.599081 75.856369,187.13697 C79.7333381,189.739188 83.9022026,191.593976 88.3584717,192.699803 C89.4347423,192.897382 90.5858579,193 91.7908618,193 C93.0003564,192.928014 94.1469813,192.610969 95.2292394,192.02436 C95.9297883,191.563343 96.468672,191.042594 96.8548721,190.455984 C97.1108418,190.128218 97.2979542,189.768288 97.4221969,189.379258 C97.7425333,188.662461 97.9012046,187.950259 97.9012046,187.238057 L97.9012046,187.040478 C97.9655713,186.8429 98,186.651448 98,186.453869 C97.7425333,187.040478 97.4221969,187.561228 97.0419845,188.016118 C96.3399387,189.062213 95.4567681,189.679454 94.3745099,189.870907" id="Shape" fill="#FFFFFF"></path>
            <path d="M128.967388,193.1671 C129.410787,188.889787 130.081111,184.612475 130.967909,180.324488 C134.461355,160.882159 140.013546,142.928121 147.62896,126.459324 C148.393338,124.838368 149.151744,123.225036 149.908658,121.59798 C157.146362,107.207606 165.181288,94.3405963 174,83 C170.191546,86.7588503 166.483119,90.8379273 162.861281,95.2463801 C155.687773,103.80558 149.18011,113.461174 143.34277,124.225363 C134.461355,140.689585 128.180617,159.005021 124.494583,179.162523 C123.800373,183.314795 123.22261,187.264256 122.780704,191.023107 C122.652313,190.445174 122.56423,189.890114 122.495555,189.373177 C120.659257,178.93684 118.02275,166.8155 114.599471,153.007634 C112.121215,143.864403 108.441153,135.440918 103.553314,127.728032 C98.7953596,119.94805 93.0505814,113.432201 86.3204723,108.183535 C82.3209242,105.133758 78.1631261,102.63904 73.8470778,100.690232 C70.9313939,99.3330815 67.9798797,98.2000893 65,97.2897308 C72.0391448,100.464549 78.546808,104.836404 84.5125392,110.417497 C87.371492,113.139423 90.0303927,116.11753 92.5086494,119.364018 C95.0451302,122.735546 97.3367712,126.328184 99.3671502,130.157179 C107.110956,145.586002 111.647957,162.794369 112.978154,181.783807 C113.73656,190.933138 113.929148,199.230057 113.549945,206.682187 C113.170741,214.074847 112.406363,221.949372 111.268754,230.311861 C110.056498,238.93663 108.469518,247.228975 106.504828,255.198042 C105.489639,259.159703 104.31172,262.978024 102.983016,266.675878 C101.775239,270.440828 100.22409,274.002968 98.3176234,277.374497 C99.3313199,276.015821 100.282314,274.615973 101.175083,273.187153 C99.3955157,276.105789 98.4445221,277.505637 98.3176234,277.374497 C106.819835,279.059499 112.436222,278.608132 115.16529,276.015821 C117.894358,273.418936 119.166331,271.85745 118.972251,271.340513 C119.48731,269.339859 120.053129,267.296508 120.687622,265.21656 C121.00263,268.85037 121.516196,272.215799 122.214885,275.331146 C121.952131,275.718468 122.72248,276.987175 124.494583,279.118969 C126.272658,281.322433 130.460314,282.263289 137.05606,281.936963 C136.875416,282.008633 135.697498,279.38125 133.54022,274.068538 C134.806221,276.790464 135.984139,279.417847 137.05606,281.936963 C136.554437,280.06135 135.633302,276.3025 134.297133,270.666512 C137.726384,275.134435 142.991933,276.885007 150.101245,275.913653 C140.134473,260.099034 133.947789,244.182247 131.538207,228.170917 C129.188341,212.156537 128.331402,200.48809 128.967388,193.1671" id="Shape" fill="#FFFFFF"></path>
            <path d="M54.8974006,46.2028228 C56.810561,47.4699425 58.865759,48.4986932 61.0905326,49.2953476 C63.3051607,50.1045478 65.4965989,50.8337689 67.647455,51.5018296 C68.7576677,51.8374281 69.8722286,52.2059592 70.9766439,52.6042865 L72.5506531,53.2958704 L73.3767905,53.6016728 C73.6260811,53.6628332 73.8695742,53.7679038 74.1188648,53.8964976 C78.0017107,55.9665447 81.1105963,58.9320439 83.4542178,62.7976999 C84.9325689,65.2049137 85.8268265,67.8395191 86.1326423,70.7062206 C86.2514901,72.1019341 86.1949649,73.529012 85.9514718,75 C86.5065781,74.2033455 86.9703746,73.2357554 87.338513,72.1019341 C87.7066515,70.9696811 87.9211573,69.7684266 87.9776825,68.4997386 C88.1023278,65.9702039 87.7052021,63.4281234 86.7776092,60.8985886 C85.7920417,58.4302143 84.4050005,56.1625719 82.6222829,54.1050706 C80.8946411,51.966022 78.7379876,50.2331417 76.150873,48.8970204 C71.1636118,46.9681129 66.4473816,45.7982227 62.0137774,45.3998955 C59.8571239,45.0690016 57.7627931,44.6346053 55.7235381,44.1014114 C55.2307543,43.9665447 54.7452174,43.7940408 54.2466363,43.5980136 C52.7740825,43.1338212 51.3479084,42.6006273 50,42 C50.6681568,42.7966545 51.4435665,43.5321485 52.3102861,44.2049137 C53.114683,44.927862 53.9683584,45.6021955 54.8974006,46.2028228" id="Shape" fill="#FFFFFF"></path>
            <path d="M46.38988,40.0680539 C46.9799546,40.9909615 47.4781706,41.937019 47.8798573,42.9201163 L47.9717159,43.0158024 C49.5644502,45.7104457 50.9516705,48.628871 52.1427181,51.7757082 C53.475446,54.9287188 54.8611093,58.1419189 56.321505,61.4276553 C57.7694453,64.7010451 59.563023,67.9806081 61.6788842,71.2663445 C63.6624067,74.6122705 66.5380474,77.5306958 70.3089199,80.0262504 C72.7610769,81.3998086 75.4062926,82.0634378 78.2523516,81.9909016 C79.5772948,82.0634378 81.0065521,81.7023001 82.5276679,80.905945 C83.3185858,80.5139407 84.0176452,79.9537142 84.6139475,79.2422419 L84.6139475,79.1403825 C85.2040221,78.4165637 85.6057087,77.6634217 85.8003244,76.8732399 C86.0665585,75.2326867 86.0665585,73.7865923 85.8003244,72.5442166 C85.4780409,71.297211 85.0701265,70.1505214 84.6139475,69.0964313 C83.6221862,66.9975109 82.4544924,65.0621828 81.1404476,63.2966204 C80.4118067,62.4400757 79.6504703,61.6143975 78.8486539,60.830389 C78.5263704,60.4383847 78.1246837,60.077247 77.662277,59.7516056 C77.3944859,59.5586902 77.1702887,59.3596014 76.9694453,59.1543393 L76.3669153,58.7623351 C74.6449562,57.5878657 72.924554,56.502909 71.2088226,55.5198118 C70.2186182,54.9950817 69.226857,54.5073914 68.228868,54.0428509 C65.7113201,52.727939 63.1392799,51.9439305 60.4816088,51.6861955 C63.8570224,52.9933907 67.0066818,54.9287188 69.9134609,57.4906363 C71.3738566,58.666649 72.8326954,59.9506944 74.2806357,61.3257959 L74.876938,61.8196595 L75.2786247,62.2116638 C75.6071359,62.5434784 75.9045086,62.8984429 76.1722997,63.2966204 C76.7623743,64.014266 77.2979565,64.7982745 77.7588064,65.6532759 C78.8175154,67.3000024 79.6816088,68.9992019 80.3386312,70.7724809 C80.6064223,71.6876719 80.8072657,72.5750831 80.9396043,73.4239112 C81.0672721,74.1477301 81.0672721,74.7743195 80.9396043,75.3052229 C80.8679857,75.3654125 80.8368472,75.4317755 80.8368472,75.4919651 C80.7029517,75.8901426 80.4413883,76.1864608 80.0459293,76.3793763 C79.5772948,76.5769217 78.9218294,76.6803244 78.057736,76.6803244 C76.3357768,76.740514 74.6885501,76.3176433 73.0942588,75.396279 C70.3820954,73.6291733 67.9984431,71.2663445 65.943302,68.3124228 C63.8990594,65.4248639 61.9715861,62.4400757 60.1889069,59.3596014 C58.4685047,56.3331434 56.7465456,53.3560718 55.0261434,50.4006067 C53.5050276,47.7784996 51.8142069,45.3493079 49.9599092,43.119205 C49.631398,42.7873904 49.3277976,42.4679224 49.0662342,42.1361078 L49.1689912,42.2333372 C48.7735323,41.7147804 48.3360363,41.1530105 47.8798573,40.5572875 C47.6058385,40.2378195 47.3146935,39.9060049 46.9799546,39.5741903 C46.0551411,38.7901818 45.0633798,38.2654517 44,38 C44.997989,38.5309034 45.7935777,39.2115092 46.38988,40.0680539" id="Shape" fill="#FFFFFF"></path>
            <path d="M208.615431,65.0371984 C202.787408,64.7280518 197.984685,66.3456794 194.195595,69.8958325 C192.401684,71.6701902 191.159072,73.6242842 190.475053,75.7653041 C190.286911,76.4943149 190.161483,77.1686858 190.104603,77.7812274 C189.916461,79.1242178 189.985009,80.3823725 190.286911,81.538437 C190.286911,81.6620956 190.320456,81.814512 190.38317,82 C190.696739,80.0444681 191.374925,78.2643589 192.427936,76.6855544 C193.539286,75.1527625 194.935036,73.8658499 196.615187,72.8276925 C200.090707,70.6866727 203.89584,69.7434161 208.049546,69.9849818 C212.39577,70.7269336 216.794498,71.5465315 221.261774,72.4624682 C223.557396,72.8276925 225.78593,72.9786711 227.95029,72.9225934 C228.828286,72.860764 229.687321,72.7371054 230.559483,72.557369 C231.796261,72.3718811 232.946989,72.1245638 234,71.8211688 C232.820102,71.6975101 231.641663,71.5177737 230.4676,71.2661428 C229.7267,71.1482357 228.946422,70.9684993 228.142808,70.7269336 C226.217635,70.2322991 224.269127,69.6197574 222.285616,68.8893088 C218.255879,67.1149511 213.698178,65.8280386 208.615431,65.0371984" id="Shape" fill="#FFFFFF"></path>
            <path d="M234.156682,75.4133424 C233.710776,75.5922202 233.258864,75.771098 232.818964,75.9444291 C230.455813,77.005216 228.185747,78.2740002 226.016272,79.7521685 L218.164126,85.0547158 C215.548745,86.8268538 212.838779,88.4409137 210.029722,89.919082 C207.097553,91.3917037 204.223938,92.1557475 201.414881,92.2098268 C200.581623,92.1557475 199.790403,92.0101493 199.021703,91.7716456 C198.63435,91.7175663 198.289036,91.5983144 197.966242,91.4194367 C197.778571,91.3653573 197.556369,91.2752251 197.296633,91.1545866 C197.175022,91.0949607 197.005368,91.0020552 196.823702,90.8883499 C196.178115,90.4765151 195.697677,90.0924132 195.386895,89.7402042 C195.31633,89.6209524 195.287804,89.5613264 195.287804,89.5613264 C195.035575,89.2091175 194.906457,88.8569085 194.906457,88.5046996 C195.035575,87.5035387 195.697677,86.3498464 196.918288,85.0547158 C198.06233,83.8746772 199.37002,82.8443967 200.835354,81.9624876 C201.610059,81.4854802 202.371252,81.0791919 203.139951,80.7158898 C203.521298,80.5425586 203.872618,80.3914138 204.189406,80.2777086 C204.576759,80.2180827 204.986632,80.1043774 205.438543,79.9254996 C207.226671,79.5081182 208.974261,79.1295629 210.705337,78.7773539 C214.153976,78.0077635 217.53205,77.8025394 220.851572,78.1547483 C219.192562,77.5044097 217.402933,77.0981215 215.491693,76.9192437 C213.832683,76.7403659 212.137641,76.68074 210.41257,76.7403659 C208.56589,76.7403659 206.711702,76.8540712 204.865021,77.0981215 C204.41311,77.1522008 203.902645,77.2437197 203.329123,77.3574249 C202.818659,77.4766768 202.3142,77.5959286 201.79773,77.7096339 C200.835354,78.0077635 199.880485,78.3877054 198.924114,78.8633262 C197.077433,79.6869959 195.358369,80.7810623 193.757912,82.1358188 C192.924654,82.8443967 192.163461,83.6680664 191.45932,84.6165346 C190.755179,85.5539096 190.280747,86.7339483 190.022512,88.1538773 C189.8994,89.6209524 190.280747,91.0020552 191.178564,92.3027323 C191.301676,92.5356894 191.489347,92.7741931 191.747582,93.0113102 C192.445718,93.7809006 193.218921,94.3937997 194.046174,94.8638738 C194.304409,95.0427516 194.585165,95.2216294 194.907959,95.3949606 C195.09563,95.4601331 195.35987,95.5793849 195.670653,95.7471695 C196.245676,95.9912198 196.826705,96.1908973 197.400227,96.3697751 C198.673386,96.7871566 199.951049,96.9937673 201.230213,96.9937673 C203.329123,97.0478467 205.340954,96.749717 207.259701,96.1104717 C209.106382,95.5142124 210.831452,94.7834482 212.425903,93.9001525 C215.551748,92.1294012 218.36681,90.1783854 220.853073,88.0609718 C223.339336,85.9976374 225.702487,83.966196 227.938022,81.9624876 C230.107496,79.8936067 232.371557,78.100669 234.734708,76.5670347 L234.827792,76.4755159 C235.596492,75.8251773 236.359186,75.2677442 237.126385,74.7962834 C238.018196,74.3844486 238.973065,74.1778378 240,74.1778378 C238.973065,73.9407207 237.959643,73.9407207 236.932708,74.1778378 C235.84722,74.5300467 234.862324,74.9696146 233.964507,75.5007013 L234.156682,75.4133424" id="Shape" fill="#FFFFFF"></path>
            <path d="M234.233091,117.800834 C235.772397,117.476501 237.344903,117.505163 238.943065,117.894363 C241.902456,118.595827 244.531349,120.039487 246.83578,122.225341 C247.095349,122.413907 247.348882,122.638678 247.602415,122.89211 C250.048704,125.779429 252.418027,128.69541 254.736041,131.647596 C255.048429,132.030762 255.431746,132.413927 255.885993,132.803127 C256.847304,133.893792 257.908218,134.859248 259.062697,135.690446 C260.342434,136.651378 261.65688,137.417709 263,138 C260.760461,135.690446 258.766909,132.991693 257.040472,129.921842 C255.431746,126.71019 253.29181,123.498538 250.591988,120.298954 C250.273563,119.909754 249.920428,119.556759 249.531074,119.23846 C246.453972,116.610607 243.058444,115.195609 239.338455,115.007044 C237.28152,114.942177 235.389079,115.325343 233.64906,116.156541 C233.466456,116.286274 233.265743,116.416007 233.083139,116.54574 C231.667581,117.44633 230.63685,118.530961 230,119.822259 C230.890383,119.04386 231.856222,118.466094 232.882426,118.082929 C233.336672,117.953195 233.778845,117.859667 234.233091,117.800834" id="Shape" fill="#FFFFFF"></path>
            <path d="M261.258703,140.29497 C260.52583,139.954913 259.754004,139.682868 258.953325,139.480415 C258.835026,139.480415 258.710957,139.448782 258.586888,139.380771 C256.508008,138.577287 254.297845,138.003145 251.965056,137.669414 C249.576003,137.329357 247.119145,136.9893 244.60458,136.661897 C242.153492,136.32184 239.729815,135.785657 237.334992,135.043858 C234.883904,134.376398 232.803581,133.232857 231.085367,131.621146 C230.837229,131.3491 230.622272,131.083381 230.437611,130.805009 C230.195243,130.53929 229.975958,130.267245 229.795625,130.001526 C229.609521,129.735807 229.458041,129.463761 229.339743,129.199624 C229.271937,129.063601 229.215674,128.889619 229.153639,128.691911 L229.058423,128.389814 L228.963207,128.192106 C228.720839,127.511993 228.631394,126.944176 228.691986,126.474423 C228.691986,126.134366 228.787202,125.832269 228.963207,125.56655 C229.639817,124.960775 230.681421,124.620718 232.102446,124.559033 C233.444124,124.484695 234.795901,124.620718 236.149121,124.960775 C236.81996,125.096797 237.461946,125.256545 238.082292,125.460579 C238.380924,125.596602 238.662243,125.732625 238.904611,125.868648 L239.918804,126.368452 C241.142184,127.048566 242.342481,127.74766 243.502384,128.487877 C245.220598,129.569732 246.781561,130.774958 248.196816,132.12095 C248.320885,132.256973 248.406002,132.356618 248.472365,132.424629 C248.900836,132.892801 249.294684,133.326175 249.66112,133.74057 C248.685879,131.780893 247.361513,130.001526 245.711104,128.389814 C245.282632,127.913734 244.854161,127.481941 244.425689,127.080199 C243.382643,126.072682 242.24438,125.126849 241.016672,124.250609 L240.097695,123.551515 C239.793293,123.341155 239.455709,123.149774 239.083501,122.939413 C238.350628,122.539253 237.617754,122.205523 236.880552,121.933477 C235.348442,121.395712 233.752855,121.093615 232.102446,121.025604 C231.301767,120.957593 230.440496,121.025604 229.521518,121.223312 C228.540506,121.432091 227.588348,121.901844 226.665042,122.643642 C225.6898,123.65116 225.13726,124.824752 225.013191,126.170745 C224.951156,127.450308 225.108407,128.562215 225.474843,129.495394 L225.564289,129.903463 L225.744622,130.305204 C225.744622,130.434901 225.812427,130.638935 225.930726,130.91098 C226.178864,131.379152 226.421232,131.855231 226.663599,132.318658 C226.973772,132.794738 227.283945,133.232857 227.588348,133.634599 C227.89275,134.036341 228.202923,134.376398 228.507325,134.642117 C230.964183,136.927616 233.601375,138.336875 236.418899,138.874639 C239.18016,139.553172 241.817351,139.924862 244.329031,139.986547 C246.90563,140.054558 249.391342,140.090936 251.786166,140.090936 C253.500052,140.090936 255.156231,140.158948 256.750376,140.29497 C257.426986,140.356655 258.063201,140.4563 258.683547,140.592322 L258.778763,140.592322 L259.049984,140.592322 C259.726593,140.592322 260.362809,140.66666 260.983154,140.796357 C261.716028,141.06682 262.392638,141.468562 263,142 C262.577299,141.332539 261.997348,140.758397 261.258703,140.29497" id="Shape" fill="#FFFFFF"></path>
            <path d="M229.498726,85.6868596 C227.904219,86.8561338 226.689571,88.2762927 225.862289,89.9518978 L225.862289,90.0522516 C225.099568,91.7324182 224.835318,93.383695 225.099568,95 C225.668606,92.9336232 226.754132,91.2458541 228.348639,89.9518978 C231.797399,87.2423441 235.843723,86.34068 240.507131,87.2423441 C243.897335,88.2762927 247.304055,89.4045132 250.752815,90.634608 C252.541005,91.2169643 254.300668,91.5727643 256.019793,91.7035284 C257.486679,91.8342925 258.893509,91.8038823 260.231273,91.6031746 C260.483512,91.5377925 260.741756,91.5073823 261,91.5073823 C260.360395,91.3766182 259.720791,91.2169643 259.088693,91.0208182 C258.636766,90.8307541 258.162318,90.6634977 257.651835,90.5388157 C255.740529,89.8272157 253.821715,88.9529209 251.910409,87.9265748 C248.907571,86.1141236 245.424278,84.5875289 241.465036,83.3650366 C236.94126,82.4618521 232.947486,83.2342725 229.498726,85.6868596" id="Shape" fill="#FFFFFF"></path>
            <path d="M255.654848,93.7160706 C254.628535,94.0763784 253.630612,94.5020444 252.671017,94.998096 C251.522625,95.5678851 250.38133,96.2097357 249.22726,96.9236479 C247.176054,98.2073492 245.096456,99.5161882 242.98421,100.876979 C240.877642,102.232741 238.697259,103.410864 236.468612,104.399616 C234.234287,105.47216 232.061002,105.859281 229.947336,105.577738 C228.140286,105.080011 226.753415,104.118073 225.782463,102.690249 C225.482945,102.187493 225.394934,101.728311 225.511335,101.302645 C225.688775,100.302162 226.299169,99.3067069 227.324062,98.3045485 C228.350376,97.3157969 229.43063,96.497982 230.5847,95.849428 C231.183738,95.5678851 231.788454,95.2863423 232.39175,94.998096 C232.929748,94.8606763 233.540142,94.7115257 234.204477,94.5674025 C235.524631,94.3579213 236.827751,94.2137981 238.091124,94.1417366 C240.747046,93.8601937 243.253919,94.0763784 245.604645,94.7835872 C244.162412,93.7881322 242.527125,93.107737 240.714397,92.7541326 C239.87688,92.5379479 239.028007,92.3603078 238.186232,92.2228881 C236.79936,92.078765 235.40823,92 234.021359,92 C233.355604,92 232.596161,92.078765 231.758644,92.2228881 C231.037527,92.3603078 230.306474,92.5697891 229.583939,92.8647387 C228.137447,93.4278244 226.751996,94.2456393 225.420486,95.3198593 C224.754731,95.882945 224.128722,96.5633401 223.518328,97.3493139 C222.913613,98.1285842 222.465044,99.1692872 222.159847,100.444609 C221.860329,101.807075 221.982407,103.115914 222.520406,104.399616 C222.770241,104.969405 223.035692,105.47216 223.340888,105.897826 C223.640407,106.323492 223.966897,106.717317 224.333133,107.070921 C224.516251,107.292133 224.699369,107.46307 224.876809,107.607193 C225.059927,107.751316 225.237367,107.888736 225.420486,108.032859 C225.842083,108.393167 226.23529,108.67471 226.595848,108.890894 C227.444722,109.314884 228.347536,109.636648 229.307132,109.852832 C232.45137,110.278498 235.284732,109.780771 237.824254,108.35965 C240.236019,107.070921 242.470344,105.611255 244.52297,103.97395 C246.568499,102.264583 248.504725,100.628953 250.311774,99.0570053 C252.185541,97.4213755 254.055049,96.0270681 255.928816,94.8941933 L256.012567,94.7835872 C256.622961,94.2858597 257.24897,93.8601937 257.914725,93.4998859 C258.58048,93.2116397 259.273206,93.1462815 260,93.2904047 C259.334245,92.9300969 258.60887,92.8194908 257.826714,92.9636139 C257.704636,92.9636139 257.620884,93.0021584 257.555586,93.07422 C256.83447,93.2116397 256.168715,93.4663689 255.559741,93.8199733 L255.654848,93.7160706" id="Shape" fill="#FFFFFF"></path>
            <path d="M170.521578,38.5909546 C166.585527,43.1207488 164.761656,48.0331523 165.024895,53.3251643 C165.159648,55.7453558 165.789542,57.9494856 166.92241,59.9255502 C166.92241,60.054587 166.953748,60.1881252 167.019558,60.3111603 C168.287179,62.3577451 169.847811,63.9166905 171.713989,65 C170.385258,63.148471 169.517196,61.1093884 169.119203,58.8812518 C168.788587,57.0942412 168.788587,55.2712203 169.119203,53.4256931 C169.713058,49.2169906 171.518126,45.483924 174.517172,42.2249929 C175.313157,41.4627751 176.176518,40.7005573 177.111957,39.9323378 C178.042696,39.2301372 178.978135,38.4964276 179.908873,37.7357102 C181.836159,36.3928265 183.739942,34.962918 185.607686,33.426479 C187.534973,31.9620606 189.236626,30.332595 190.693842,28.5455845 C191.563471,27.3962561 192.328118,26.2529294 193.001885,25.0990997 C193.130371,24.8470277 193.265124,24.5649471 193.399877,24.242355 C193.663117,23.8612461 193.865247,23.4396256 194,23 C193.926356,23.0585167 193.865247,23.1290369 193.79787,23.1875536 C192.530248,24.3953987 191.165479,25.5207202 189.697294,26.53501 C189.501432,26.6640469 189.299302,26.7930837 189.103439,26.9161189 C187.304638,28.134467 185.407123,29.2477851 183.404626,30.2680766 C181.336318,31.2883681 179.205335,32.4722063 177.01481,33.8075879 C175.880374,34.4467705 174.780411,35.1444698 173.710219,35.9186911 C172.712104,36.6794084 171.65288,37.570663 170.521578,38.5909546" id="Shape" fill="#FFFFFF"></path>
            <path d="M188.345621,45.00194 C188.032943,48.2842816 187.544293,51.5155644 186.862219,54.6724476 C186.242681,57.9606244 185.101043,60.7863557 183.425672,63.1394299 C182.442555,64.4450724 181.204932,65.3057753 179.715713,65.7448796 C178.914385,66.0570668 178.294847,66.1766899 177.864369,66.1139607 C177.557509,66.0570668 177.313184,65.9607848 177.125577,65.8353264 C177.000506,65.7725972 176.875435,65.6879857 176.756181,65.5625273 C175.949036,64.63326 175.483655,63.2371707 175.364401,61.3728007 C175.176794,59.6411832 175.20588,57.8628835 175.454568,56.0685368 C175.511287,55.2078339 175.665444,54.3646369 175.919949,53.5549926 C175.976668,53.1275588 176.072653,52.7176308 176.191906,52.347091 C176.318432,52.0392803 176.506039,51.6629051 176.756181,51.229636 C177.432438,49.5607477 178.204679,47.9472945 179.07436,46.3980293 C180.61448,43.1725817 182.590895,40.4431324 185.005058,38.2096813 C182.289851,39.6962173 179.875688,41.80421 177.772747,44.5351181 C177.585141,44.7845761 177.397534,45.00194 177.215745,45.1842923 C176.101739,46.6139344 175.051723,48.1354821 174.062788,49.7489353 L173.687575,50.3922742 C173.505786,50.5804618 173.386532,50.8022022 173.318179,51.0472837 C173.073854,51.543282 172.852798,52.0392803 172.676826,52.5411138 C172.295795,53.4703812 171.994752,54.4273661 171.74461,55.4179038 C171.244325,57.4018969 171,59.4763367 171,61.6528939 C171,62.7076196 171.15852,63.8236157 171.463927,65.0037999 C171.652988,66.1766899 172.209991,67.3860504 173.134935,68.6275049 C174.12387,69.8704182 175.453114,70.6392156 177.122668,70.9528615 L177.212836,70.9528615 C178.700601,71.0783199 180.025482,70.9528615 181.200569,70.5823216 C183.677268,69.7785127 185.739488,68.3547059 187.414859,66.3021483 C188.710654,64.63326 189.664685,62.8549603 190.290041,60.9978844 C190.90958,59.2020789 191.369143,57.4018969 191.681821,55.6060914 C192.176288,52.0728331 192.420613,48.6256451 192.420613,45.2747391 C192.420613,41.9296684 192.358078,38.710056 192.233007,35.6042316 C192.107936,32.4998659 192.20392,29.5297115 192.516598,26.6748038 L192.516598,26.4924515 L192.516598,26.5785218 C192.448245,25.523796 192.516598,24.5376348 192.698388,23.6039909 C192.885994,22.6119944 193.317926,21.7454562 194,21 C193.130319,21.6199978 192.488966,22.390254 192.051217,23.3238978 C191.619285,24.3786235 191.341511,25.3983376 191.21644,26.3961695 L191.21644,26.3042639 C191.028833,26.7944269 190.87613,27.3254368 190.756876,27.8885407 C190.375846,29.0628896 190.103889,30.2707913 189.916282,31.5137046 C189.66614,32.812053 189.490168,34.1454131 189.365096,35.5079495 C188.992792,38.613774 188.652482,41.7764924 188.345621,45.00194" id="Shape" fill="#FFFFFF"></path>
            <path d="M102.356117,14.6616821 C103.400399,16.5519732 104.61668,18.3105259 106.014515,19.9388723 C108.856599,23.1940331 111.724619,26.449194 114.630862,29.7104822 C117.238153,32.8997739 118.832559,36.507258 119.419541,40.5467211 C119.76627,42.496754 119.702111,44.3947042 119.237986,46.2129988 C118.779321,47.8413451 117.995769,49.2766796 116.891424,50.5098111 L116.460061,51 C117.963007,50.4791743 119.302144,49.4681596 120.459727,47.9730834 C120.69452,47.7096068 120.865154,47.4522576 120.98255,47.1949085 C122.198831,45.1728791 122.870447,42.8980961 122.987844,40.3552411 C123.158478,35.0841783 121.532675,30.2910497 118.11453,25.9942374 C116.5406,24.1698154 114.914797,22.5123641 113.235756,21.0096287 C111.55535,19.5850171 109.929547,18.2446568 108.361077,17.0130571 C106.335308,15.4444525 104.44195,13.7808739 102.704211,12.0284485 C101.775961,11.0526661 100.875012,10.0416515 100,9 C100.240253,9.71843315 100.500982,10.4659713 100.789013,11.2441462 C101.193075,12.3516668 101.715898,13.4944197 102.356117,14.6616821" id="Shape" fill="#FFFFFF"></path>
            <path d="M98.5317592,53.5924803 C99.3056011,54.5721286 100.160426,55.4270104 101.12173,56.1432626 C101.567139,56.5345058 102.077035,56.8949425 102.649918,57.2261129 C103.101326,57.4910492 103.576728,57.7498242 104.085125,58.0085992 C105.169403,58.5384719 106.447142,58.863481 107.910843,58.9944088 C109.44053,59.0606429 110.875737,58.5384719 112.216463,57.4248151 C112.5269,57.099806 112.82084,56.7686356 113.072788,56.4436265 C113.710158,55.5949061 114.127073,54.7415646 114.314535,53.8866829 C114.699956,52.7067921 114.917411,51.5638691 114.987897,50.4517526 C115.052384,48.2845119 114.858923,46.2204731 114.413514,44.2596362 C114.226053,43.2784476 113.933612,42.292638 113.55269,41.3114494 C113.423717,41.1189085 113.300742,40.89094 113.171768,40.632165 C113.101282,40.3672287 113.008301,40.1377199 112.879328,39.9390176 L112.216463,38.7668284 C111.321146,37.123299 110.359843,35.5891328 109.34605,34.145846 C108.701181,33.2909643 108.06981,32.4730504 107.430941,31.690564 C105.901254,29.7235658 104.185604,28.1216253 102.268996,26.8770407 C104.373066,29.3615889 106.094714,32.1834688 107.430941,35.3241965 C108.134297,36.8953305 108.771667,38.4957308 109.34605,40.1377199 L109.821453,41.413111 C109.950426,41.6118133 110.008914,41.8043542 110.008914,42.0030564 L110.206874,42.4975016 C110.400334,43.2784476 110.523309,44.0979018 110.587796,44.9512432 C110.781256,46.6548454 110.752762,48.3569073 110.488816,50.0605095 C110.359843,50.9739236 110.107894,51.7933779 109.726972,52.5142511 C109.533511,53.0379625 109.317556,53.3999394 109.053609,53.5924803 C108.801661,53.7187872 108.485226,53.7911826 108.098305,53.7911826 C107.588409,53.7187872 106.985532,53.5324076 106.282176,53.2012372 C105.96574,53.0086962 105.614812,52.809994 105.227891,52.6051304 C104.917455,52.4187508 104.59502,52.184621 104.272586,51.925846 C103.704202,51.4021347 103.159814,50.8414555 102.649918,50.2530504 C100.992756,48.0257369 99.8799838,45.3424864 99.3056011,42.2017587 C98.7957053,39.127265 98.5032651,36.0111826 98.444777,32.8704549 C98.3158034,29.7235658 98.2213227,26.5812978 98.1508371,23.4405701 C98.092349,20.3599151 97.6769339,17.3454942 96.9150896,14.4034688 L96.9150896,14.5005094 C96.844604,14.0430321 96.7861159,13.5855549 96.7216291,13.1280776 C96.5926554,12.5381322 96.4351876,11.9789933 96.2417271,11.455282 C96.1127535,11.1903457 95.9897786,10.9623772 95.860805,10.7698363 C95.4798828,10.0474227 94.9999808,9.45747726 94.4255982,9 C94.6775467,9.39124318 94.9055002,9.78864767 95.0989606,10.1798908 C95.0989606,10.2399636 95.1289545,10.312359 95.1874425,10.3724318 C95.3164162,10.7698363 95.4513886,11.1903457 95.5743635,11.6539842 C95.6388503,12.5689388 95.6088564,13.5193208 95.4798828,14.5005094 L95.4798828,14.6992117 C95.6088564,17.4486962 95.4798828,20.3244876 95.0989606,23.3389084 C94.7060409,26.3594906 94.3956043,29.494057 94.1436558,32.7734142 C93.8812094,36.0404488 93.9801892,39.4769194 94.4255982,43.0859067 C94.8065204,46.7503457 96.1832391,50.2530504 98.5317592,53.5924803" id="Shape" fill="#FFFFFF"></path>
            <path d="M20.9146127,152.002646 C18.9714309,153.459641 16.9765525,154.708494 14.9041293,155.764738 C13.9355794,156.226068 12.9670294,156.620606 12,156.954566 C12.5808259,157.015145 13.1935819,157.015145 13.8397887,156.954566 C14.9330186,156.887774 16.0323303,156.75419 17.1316421,156.560028 C18.9425416,156.098698 20.6941421,155.436992 22.3697183,154.581124 C24.1152369,153.720595 25.8257843,152.821235 27.5135243,151.900128 C28.284411,151.50559 29.1221991,151.111051 30.0314501,150.7103 L31.2904129,150.121599 L31.9731114,149.818706 L32.5493758,149.624543 C35.9111716,148.568299 39.2729673,148.599365 42.6347631,149.720848 C45.6042734,150.7103 47.9321383,152.56028 49.6137964,155.267682 C49.7445583,155.468058 49.8692382,155.704159 50,155.965114 C49.8692382,154.247164 49.2564821,152.56028 48.1586908,150.910676 L48.1586908,150.910676 C47.059379,149.32631 45.6042734,148.010665 43.7994558,146.948207 C40.0453745,144.837273 35.8822823,144.442734 31.2904129,145.759933 C27.15621,147.543121 23.6940621,149.624543 20.9146127,152.002646" id="Shape" fill="#FFFFFF"></path>
            <path d="M49.5519545,157.79564 C48.7727113,157.196504 47.9550438,156.664633 47.103563,156.200028 C45.4759129,155.394401 43.843652,154.801521 42.2037061,154.397925 C40.5115034,154.000587 38.7762655,153.897341 37.0102882,154.103832 C35.4441169,154.30563 33.9132958,154.568437 32.4055293,154.89851 C30.9054477,155.228582 29.4345684,155.668158 27.9928916,156.200028 C26.6234523,156.799165 25.3815814,157.520319 24.2703529,158.38852 C26.8816631,157.257512 29.6927792,156.664633 32.7006274,156.597367 C34.1407672,156.523844 35.6423859,156.523844 37.214705,156.597367 C38.5841443,156.597367 39.9827861,156.860174 41.4229259,157.392044 C42.8646028,157.856649 44.2033027,158.491765 45.4467105,159.2927 C46.7423753,160.087377 47.6307434,160.9853 48.0872231,161.980211 C48.3515818,162.579348 48.1533128,163.313016 47.5047119,164.181217 C46.6532311,165.371668 45.4098233,166.20389 43.7775623,166.673187 C41.3568363,167.137792 38.7762655,166.998567 36.032776,166.277413 C33.4199288,165.604753 30.839358,164.780353 28.2926005,163.783878 C25.6751425,162.781146 23.129922,161.815957 20.6446432,160.88049 C19.1430246,160.287611 17.6122036,159.793284 16.0398844,159.383431 C15.0608352,159.18789 14.0525836,158.986092 13.0012968,158.790551 L13.1042738,158.889104 C12.3111978,158.62004 11.5012152,158.455786 10.6481974,158.38852 L10.4499284,158.38852 C9.60305857,158.38852 8.78692808,158.590318 8,158.986092 C8.85301775,158.723285 9.66914824,158.693563 10.4499284,158.889104 C11.2430044,159.158168 11.9930452,159.48824 12.7077358,159.885579 L12.8030278,159.885579 C15.0915746,160.684949 17.3785843,161.748691 19.6594462,163.081496 C22.0186934,164.278205 24.4686219,165.499943 27.0138424,166.77174 C29.5006581,168.037279 32.2134082,169.137 35.1490188,170.059952 C38.0246877,171.06112 41.2246569,171.262918 44.7550745,170.663781 C46.9114419,170.059952 48.7066216,168.935202 50.1467615,167.272324 C50.1467615,167.272324 50.1775008,167.236344 50.2435905,167.169078 C50.8968023,166.43541 51.4255196,165.470221 51.8159097,164.278205 C52.1340623,162.946964 52.0433811,161.681425 51.5162008,160.483151 C50.9936313,159.353708 50.3450304,158.455786 49.5519545,157.79564" id="Shape" fill="#FFFFFF"></path>
            <path d="M22.4803688,59.4365381 C24.0884264,59.7776214 25.7553154,59.9759256 27.4825442,60.0441422 C29.4088946,60.0441422 31.3005496,60.0124136 33.1575091,59.9441969 L36.044772,59.9441969 C37.0041759,60.0124136 37.906257,60.0742845 38.7434727,60.1488469 C42.3261526,60.8183219 45.436673,62.4111014 48.0659829,64.8954567 C50.6998182,67.3322189 52.208315,70.3686531 52.5914732,74 C52.7785268,73.1940917 52.9082575,72.3516953 52.9731229,71.4712246 C53.0440223,70.5970996 52.9731229,69.6864866 52.7785268,68.744145 L52.7785268,68.4411361 C52.3380458,66.4136738 51.50083,64.5670649 50.2864901,62.8759265 C47.6526547,59.3001048 43.9930415,57.044196 39.315193,56.1018543 C34.8952974,55.8305742 30.8826959,56.1018543 27.2879481,56.9077627 C25.3027663,57.3107169 23.3809414,57.5470955 21.5194564,57.6200715 C19.9807897,57.6200715 18.4722929,57.5470955 17,57.4170079 C18.4722929,58.2276756 20.1105204,58.8670084 21.9086485,59.3318335 C22.0972106,59.3318335 22.2918067,59.3746672 22.4803688,59.4365381" id="Shape" fill="#FFFFFF"></path>
            <path d="M17.82577,58.895085 L17.9106895,58.9980309 C19.5988306,60.7169153 21.2166935,62.6713273 22.773063,64.8659464 C24.390926,66.9856958 26.0673541,69.1678366 27.8111321,71.4342058 C29.5563743,73.6147869 31.5168435,75.7719711 33.6969321,77.8979596 C35.8697,80.0192688 38.5754111,81.6024517 41.8184576,82.6693454 C43.8711669,83.1934336 45.8960578,83.095167 47.8858096,82.3698665 C48.8814175,81.9690015 49.8184603,81.3045326 50.6822966,80.3842587 C50.8082118,80.2501171 50.9063084,80.1097364 50.969266,79.9755948 C51.7115796,78.9211793 52.05565,77.8246497 51.9926924,76.6984841 C51.9355914,75.4428562 51.648622,74.3463266 51.1522822,73.4198136 C50.7174357,72.4870615 50.2196318,71.6588151 49.6588702,70.9335145 C48.5432037,69.5328265 47.2913731,68.3146336 45.9238763,67.2477398 C44.6149446,66.1200145 43.1844903,65.291768 41.6354414,64.7614407 C40.136173,64.1656024 38.6720436,63.7023459 37.2430534,63.3732311 C36.9970796,63.3061603 36.7452494,63.2390895 36.4992757,63.1720186 C33.7540331,62.5075498 31.1464188,62.3796473 28.6515424,62.775833 C31.3909284,62.9770454 34.0688209,63.7023459 36.6822918,64.9626531 C38.0556452,65.627122 39.3865387,66.2853518 40.702791,66.9560598 C41.9385162,67.6127298 43.0937142,68.4784111 44.1508156,69.5328265 C45.2723387,70.5997203 46.2386641,71.7570816 47.0453993,73.0173888 C47.9150922,74.4133974 48.377757,75.6315904 48.4465711,76.6984841 C48.377757,76.8326257 48.3499386,76.9293324 48.3499386,76.9964032 C48.2913734,77.2646864 48.1654583,77.4892957 47.9780497,77.6905081 C47.6632619,78.0258621 47.1991329,78.325341 46.576878,78.5873851 C45.3294397,78.9835708 44.0249005,79.025685 42.6530113,78.690331 C40.3587206,78.0258621 38.1464212,76.72812 36.0292901,74.8095831 C33.9077667,73.0173888 31.9180149,71.1284878 30.0527142,69.1366409 C28.183021,67.1510331 26.3191843,65.1888221 24.448027,63.2687254 C23.4597397,62.2767014 22.4582752,61.3127536 21.4626673,60.3878004 C20.531481,59.5283582 19.5300165,58.7671826 18.4773075,58.0964745 L18.5695477,58.1994204 C17.9516851,57.5365113 17.23719,57.006184 16.4245982,56.6037592 C15.6178629,56.1467419 14.8052711,55.9455295 14,56.0126003 C14.8052711,56.2075735 15.5212304,56.5725635 16.139093,57.1028908 C16.7672045,57.6394572 17.3221095,58.2306161 17.82577,58.895085" id="Shape" fill="#FFFFFF"></path>
            <path d="M71.2855386,13.2239754 C72.6403687,14.5965363 74.1512921,15.8058071 75.8258863,16.8579498 C79.1826521,18.8867519 82.4621288,21.0110634 85.6885641,23.2432079 C88.5891734,25.6617496 90.6790064,28.6102138 91.9686712,32.0824386 C92.6733647,34.1112408 92.9340255,36.1754738 92.7385299,38.2689758 C92.6081995,39.5799178 92.2232702,40.82616 91.5791955,42 C92.0990016,41.60872 92.5430343,41.1157688 92.9340255,40.5257679 C93.638719,39.6168892 94.1600406,38.563206 94.4737429,37.3909065 C95.0587142,35.4221828 95.1541888,33.3887592 94.7692595,31.2952572 C93.9933389,26.9742321 91.7731756,23.2077771 88.1042231,20.0005135 C84.3685899,17.4417888 80.7269158,15.5161983 77.1822318,14.2052563 C75.5000603,13.549015 73.8966932,12.7972645 72.3448521,11.9484642 C70.8005883,11.0272617 69.3502836,10.0475212 68,9 C68.2545989,9.39127999 68.5091979,9.78255999 68.7759206,10.17384 C69.480614,11.2259826 70.3141225,12.2365325 71.2855386,13.2239754" id="Shape" fill="#FFFFFF"></path>
            <path d="M62.7894299,9.90749172 C63.0243468,10.2080894 63.1896081,10.5414538 63.3070665,10.9090093 C63.6007126,11.6327232 63.8028504,12.4219703 63.9203088,13.2682028 L63.9203088,13.3579547 C64.560867,15.6003283 65.0511876,17.9652204 65.4035629,20.4469324 C65.8037411,22.9229459 66.2407957,25.4730404 66.7106295,28.077271 C67.1695368,30.7370622 67.8688242,33.4353186 68.7961995,36.1620677 C69.6074822,38.950076 71.1180523,41.5500326 73.3210808,43.976184 C74.7182898,45.3666265 76.3722684,46.3026109 78.2884798,46.7912603 C79.2213183,47.0362973 80.2620546,47.06479 81.4243468,46.8810122 C82.0061758,46.702933 82.5565914,46.3966368 83.0783254,45.967822 C83.4252375,45.7284835 83.7188836,45.3951192 83.9483373,44.9777015 C84.0657957,44.855183 84.1832542,44.6998979 84.2952494,44.5218187 C84.75962,43.4305492 85,42.400539 85,41.4275141 C85,40.5200224 84.9358076,39.6467219 84.8238124,38.7947909 C84.4769002,37.0980521 83.9811164,35.4953391 83.3405582,33.9809534 C82.9936461,33.2515409 82.6153207,32.5292515 82.2096793,31.8055376 C81.7453088,31.1373843 81.2754751,30.4977238 80.8165677,29.8965283 C79.8290974,28.7439996 78.8429929,27.6541547 77.8555226,26.6241445 L77.76538,26.6241445 C75.7371734,24.4985909 73.5286817,22.9229459 71.1440024,21.8943604 C73.2404988,23.41302 75.097981,25.3505219 76.7246437,27.715414 C77.5359264,28.8665181 78.3144299,30.0418409 79.0724466,31.2599028 C79.4835511,31.8610983 79.8290974,32.4622937 80.1172803,33.0734616 C80.4054632,33.6746571 80.6458432,34.3428103 80.8165677,35.0665243 C81.2754751,36.4014061 81.5950713,37.7932734 81.7712589,39.2506737 C81.8887173,40.3419432 81.8354513,41.3434607 81.5950713,42.2509525 C81.5418052,42.4290317 81.483076,42.6128094 81.4243468,42.7908887 C81.1948931,43.0971849 80.9285629,43.2809627 80.6458432,43.3365234 C80.2347387,43.4020566 79.7130048,43.3635914 79.0724466,43.2467715 C77.8555226,42.8849145 76.7519596,42.2167612 75.7644893,41.2494349 C74.1378266,39.4900122 72.8621734,37.3758557 71.9334323,34.8941436 C71.0005938,32.406733 70.1947743,29.925021 69.4900238,27.4361858 C68.8494656,24.898913 68.1570071,22.3844344 67.4044537,19.9012977 C66.9400831,18.1432996 66.352791,16.4465608 65.6589667,14.8153551 C65.4295131,14.1472019 65.1372328,13.5132398 64.7903207,12.9063458 L64.7903207,12.9960978 C64.560867,12.2111245 64.2139549,11.4489455 63.7441211,10.7252315 C63.2797506,9.93455976 62.7033848,9.36185698 62,9 C62.2936461,9.23933848 62.5230998,9.51144353 62.7033848,9.81773979 C62.7566508,9.87899904 62.7894299,9.90749172 62.7894299,9.90749172" id="Shape" fill="#FFFFFF"></path>
            <path d="M146.533206,41.2344707 C145.71209,42.5247405 144.923928,43.9001623 144.167348,45.3780552 C143.523362,46.6625519 142.91233,48.0163249 142.327388,49.4249416 C140.985865,52.3735111 139.994484,55.6208343 139.350498,59.1842304 C139.001729,60.898817 138.911104,62.7707185 139.088235,64.7999347 C139.206322,65.8419646 139.501539,66.9143029 139.968395,68.0183928 C140.376207,69.061866 141.046282,70.0086412 141.979993,70.8717075 C144.023172,72.4044441 146.093813,73.1101957 148.196036,72.9860758 C149.306877,72.9860758 150.384764,72.7998959 151.435189,72.4333092 L151.606827,72.4333092 C152.835755,71.9426026 153.88618,71.1762343 154.760847,70.1327611 C155.576471,69.0892879 156.139444,67.990971 156.423676,66.8176049 C156.718894,65.719288 156.890532,64.6411767 156.949575,63.5991467 C157.067662,61.5122003 156.977038,59.5508171 156.691432,57.7077807 C156.165533,54.0260378 155.40346,50.5593398 154.412079,47.3120166 C153.420697,44.0646933 152.454032,40.924171 151.520321,37.9193145 C151.054839,36.3909077 150.641534,34.885593 150.292766,33.4149164 C149.943997,31.9370235 149.766867,30.4663469 149.766867,29 C149.418098,30.28594 149.24646,31.6382697 149.24646,33.0483296 L149.24646,33.6010962 C149.24646,34.2087065 149.273922,34.823533 149.331593,35.4383596 C149.390636,36.4197728 149.481261,37.4055158 149.593856,38.381156 C149.942624,41.5721923 150.382018,44.8252886 150.907917,48.1404448 C151.492859,51.511888 151.92676,54.8891042 152.221977,58.2605473 C152.393615,59.9794637 152.425197,61.6031254 152.312602,63.1358619 C152.135472,64.7999347 151.722167,66.0180417 151.079555,66.8176049 C150.795322,67.2462515 150.40948,67.5565513 149.942624,67.7369582 C149.765494,67.8047911 149.567767,67.832213 149.331593,67.832213 C148.982824,67.9505599 148.602475,68.0183928 148.194663,68.0183928 C146.736426,68.0746798 145.59263,67.8047911 144.783871,67.1899646 C144.021799,66.5751381 143.469811,65.56053 143.121042,64.1519133 C142.825825,62.6740204 142.7352,61.1470569 142.853287,59.5508171 C143.030417,56.3540077 143.497273,53.1976096 144.253853,50.0744062 C144.896466,47.0017168 145.658539,44.0646933 146.533206,41.2344707" id="Shape" fill="#FFFFFF"></path>
            <path d="M133.43975,48.3287401 C131.879211,50.530035 130.825008,52.9933525 130.281934,55.7125991 C129.73886,58.4973514 129.981646,61.122148 130.999111,63.5793719 C132.07887,65.9132015 133.513225,67.8524738 135.273424,69.4124225 L136.702986,70.5717204 C137.995183,71.5421182 139.279394,72.3571305 140.57159,73 C140.502908,72.9405879 140.434225,72.8400443 140.365542,72.7136032 C137.720452,69.602846 135.917126,66.1691306 134.968344,62.4139805 C134.356587,58.6588305 135.4044,54.8975868 138.12616,51.1424367 C140.839933,47.4527923 143.697461,43.8591213 146.677979,40.3659938 C148.109139,38.5516394 149.438073,36.7007236 150.653601,34.8254336 C151.877115,32.9516671 152.656586,31.0108714 153,29 C152.388243,29.8393865 151.746138,30.6132673 151.059309,31.327736 C150.316575,32.0406814 149.567452,32.7551501 148.826316,33.4696188 C147.192302,34.8254336 145.494397,36.2132396 143.729406,37.6406537 C139.991779,40.4254059 136.565621,43.9840391 133.43975,48.3287401" id="Shape" fill="#FFFFFF"></path>
            <path d="M139.840313,16.3614163 C140.24579,18.815852 140.589008,21.3128942 140.857197,23.8327612 C140.994484,25.123128 140.994484,26.3587149 140.857197,27.518219 C140.794939,28.3018733 140.620935,28.9744465 140.346361,29.5572419 C140.215459,29.8174455 140.078171,30.0441727 139.940884,30.2404667 C139.672695,30.4961054 139.361404,30.6863127 139.030957,30.8171754 C138.62548,30.9480381 138.175306,31.0134694 137.702782,31.0134694 C136.486352,31.0834657 135.57004,30.8826067 134.958632,30.430674 C134.272196,30.0441727 133.804461,29.3016032 133.529886,28.2014438 C133.323955,27.1606292 133.255312,26.0315583 133.323955,24.8066229 C133.461243,22.4115319 133.834792,20.0818722 134.446199,17.8176438 C134.851676,16.0038264 135.332181,14.2630487 135.86856,12.580094 C136.005847,12.1235964 136.143134,11.6351439 136.274036,11.1238665 C134.988963,12.9970285 133.804461,15.0360514 132.714144,17.2348485 C131.635002,19.4397321 130.812875,21.8652563 130.276497,24.5098994 C130.001922,25.8063528 129.933278,27.2321471 130.06418,28.7842392 C130.139209,29.6272382 130.407398,30.4595856 130.887904,31.3041062 C131.218351,32.0831956 131.729188,32.7542471 132.415624,33.3431291 C134.179607,34.5071981 135.945185,35.0549953 137.702782,34.9956506 C138.582378,34.9956506 139.505077,34.8282681 140.453317,34.5071981 C141.470201,34.1815631 142.354587,33.5987678 143.103281,32.7542471 C143.165539,32.6949024 143.234183,32.6005596 143.302827,32.4696969 C144.388354,30.9176049 144.931118,29.3609479 144.931118,27.8149425 C145.068405,26.3237168 144.999762,24.8674893 144.731572,23.4462599 C144.257452,20.7240122 143.609329,18.1448004 142.79199,15.6827564 C141.981037,13.2222341 141.202012,10.8925743 140.453317,8.69986394 C140.247386,8.11098196 140.047841,7.52666496 139.84191,6.95147791 C139.299146,5.27004488 139.000626,3.61752336 138.925597,2 C138.382833,4.2003187 138.314189,6.52997841 138.719666,8.98441414 C138.999029,11.3795052 139.361404,13.8354626 139.840313,16.3614163" id="Shape" fill="#FFFFFF"></path>
            <path d="M124.456171,26.6537033 C125.574493,27.6171585 126.754133,28.4020911 127.998011,29 C127.124961,27.916113 126.384766,26.7698847 125.756987,25.5740668 C125.07811,24.423588 124.616766,23.2504397 124.359814,22.0432871 C124.057605,19.5808091 124.77006,17.1069963 126.504482,14.6388509 C128.243283,12.2245456 130.068221,9.84566152 131.996816,7.5036154 C132.932644,6.3531366 133.764816,5.15165136 134.51815,3.89065859 C135.191187,2.73876295 135.658372,1.56561462 135.909483,0.358461989 C135.972261,0.238030096 136,0.121848739 136,0 C135.69195,0.480310729 135.350322,0.901113934 134.979495,1.26099277 C134.420334,1.80364471 133.833433,2.35196404 133.205655,2.89461599 L129.949965,5.6943033 C129.082754,6.3531366 128.244743,7.07856166 127.44031,7.86349423 C125.884003,9.24775259 124.48683,10.8417041 123.248792,12.6453488 C122.250186,14.1571233 121.566929,15.7836623 121.196102,17.5277995 C120.825274,19.398036 120.980029,21.1407563 121.663286,22.7687121 C122.40932,24.3343268 123.345149,25.6293238 124.456171,26.6537033" id="Shape" fill="#FFFFFF"></path>
            <path d="M172.083896,6.16936294 C171.883863,6.84465161 171.701878,7.49670454 171.501845,8.1153561 C170.996499,10.3343692 170.543793,12.620185 170.161775,14.962638 C169.715085,17.3167088 169.203723,19.6315693 168.627689,21.9115762 C168.245671,23.0922422 167.835077,24.1407549 167.382371,25.0658278 C166.871009,26.1157928 166.294975,26.7562278 165.649756,27.006012 C165.338427,27.1933502 164.986489,27.2557962 164.604471,27.1933502 L164.123189,27.1933502 C163.799828,27.1250952 163.518579,27.0394134 163.253873,26.9159735 C162.237165,26.6037433 161.50321,26.1433852 161.050504,25.5247337 C160.603814,24.9699804 160.415813,24.1973921 160.474469,23.2113254 C160.603814,22.2238065 160.897095,21.2028862 161.337769,20.1529212 C162.295821,18.1168896 163.41781,16.1708964 164.691704,14.3222029 C165.973117,12.4662483 167.283107,10.7424469 168.627689,9.13627639 C167.663621,9.74911901 166.707072,10.4578091 165.74902,11.2579898 C164.984985,11.8824503 164.214934,12.5635479 163.446386,13.3012826 C161.724299,14.9060009 160.161636,16.789548 158.752382,18.9504717 C158.047003,20.0004367 157.535641,21.2653322 157.213783,22.7509673 C156.767093,24.2264367 157.019767,25.8035625 157.977819,27.4649179 C159.065215,29.0144512 160.381221,30.0019701 161.913804,30.4318313 C162.619183,30.6758066 163.353138,30.8689537 164.123189,30.9880368 L164.503703,30.9880368 C165.469275,31.0504829 166.425823,30.8689537 167.383875,30.4318313 C169.105963,29.4399557 170.262544,28.2142705 170.838578,26.7286354 C171.473269,25.3664402 171.925975,24.0449075 172.178648,22.7509673 C172.69001,20.1529212 172.97126,17.6579837 173.041948,15.2458236 C173.10662,12.8351156 173.171292,10.5202551 173.235965,8.30269425 C173.171292,6.07932446 173.423966,3.97503783 174,2 C173.933824,2.1248921 173.840575,2.2846378 173.717247,2.46616702 C173.264541,3.20825844 172.882523,4.01424814 172.559162,4.87106602 C172.365145,5.30818836 172.207224,5.73804954 172.083896,6.16936294" id="Shape" fill="#FFFFFF"></path>
            <path d="M152.284877,22.9048527 C152.813324,23.6603672 153.438135,24.3569214 154.167081,25 C153.972799,24.5927626 153.84535,24.1526171 153.7723,23.6877906 C152.982738,21.646119 152.715406,19.6058185 152.982738,17.5710027 C153.511185,15.2948611 155.126057,13.3656254 157.839788,11.7970073 C160.480468,10.227018 163.219067,8.73792775 166.060247,7.33522118 C167.384473,6.57970669 168.671397,5.7926553 169.927236,4.97818052 C169.994069,4.91922022 170.054685,4.893168 170.127735,4.893168 C171.318295,4.01424824 172.271054,3.05580064 173,2 C172.344104,2.41272207 171.681991,2.73357577 171.015215,2.96393228 C170.419935,3.19428878 169.795124,3.43012996 169.139228,3.66597115 L164.77954,4.893168 C161.671029,5.70078693 158.526769,7.0129963 155.362304,8.82431143 C153.7723,9.81429593 152.448074,11.0689162 151.397397,12.5840587 C150.401119,14.1581614 149.939505,15.7925957 150.006338,17.4791344 C150.20062,19.1135686 150.697982,20.5382139 151.493761,21.7640396 C151.689597,22.171277 151.956929,22.5469775 152.284877,22.9048527" id="Shape" fill="#FFFFFF"></path>
            <path d="M222.301637,39.7287896 C222.117512,39.9214079 221.927496,40.1633748 221.743371,40.4308119 C221.052537,41.4448441 220.423568,42.4636519 219.868249,43.4776841 C219.2982,44.4296327 218.803273,45.3736218 218.361375,46.3255704 C217.727987,47.5385885 217.106383,48.78822 216.486252,50.0760568 C215.352046,52.3827015 214.166285,54.6081599 212.912766,56.7794941 C212.227823,57.7919344 211.503109,58.7009021 210.754828,59.520724 C209.937315,60.3294027 209.218494,60.7703555 208.59689,60.8324391 C208.210965,60.8324391 207.779378,60.7019044 207.27414,60.4296916 C206.96923,60.297565 206.652536,60.0938034 206.335842,59.8199988 C205.460883,59.1482224 204.896726,58.433465 204.649263,57.6868699 C204.395908,56.9530098 204.453355,56.1013502 204.839279,55.1494016 C205.21342,54.2038205 205.777577,53.2534638 206.525859,52.3078828 C208.028314,50.5472555 209.689852,48.9251223 211.503109,47.4382996 C213.257447,46.0151524 215.007365,44.6970697 216.761702,43.4776841 C215.075123,44.0252933 213.378232,44.6970697 211.693126,45.5057485 C211.318985,45.6410589 210.974304,45.8161665 210.65761,46.0151524 C208.529132,47.0291846 206.497872,48.4157184 204.552045,50.1747538 C203.556301,51.0582513 202.671031,52.177348 201.922749,53.5320441 C201.041898,55.0124993 200.794435,56.7794941 201.168575,58.8059666 C201.801963,60.6398208 202.738788,62.0581923 203.987888,63.0722245 C204.615384,63.6134662 205.306219,64.054419 206.053027,64.3903072 C206.427168,64.5956606 206.84108,64.7325629 207.272667,64.7946465 C207.779378,64.9315488 208.308183,65 208.87234,65 C210.87414,64.5956606 212.382487,63.7487766 213.378232,62.4625317 C214.443208,61.3115972 215.294599,60.0938034 215.916203,58.8059666 C217.234533,56.3003361 218.270049,53.8313189 219.016857,51.400507 C219.828478,48.8932846 220.58707,46.5181888 221.272013,44.2927304 C221.956956,41.9240021 222.865794,39.8274866 224,38 C223.366612,38.4727905 222.808347,39.044278 222.301637,39.7287896" id="Shape" fill="#FFFFFF"></path>
            <path d="M199.551271,52.6339747 C199.610468,52.7579046 199.675736,52.8760702 199.741005,53 L199.741005,52.2679495 C199.741005,51.4696109 199.775916,50.6755955 199.835114,49.8758159 C199.965651,48.2272612 200.386103,46.7242519 201.097987,45.3783165 C202.32595,43.2282784 204.447942,41.7929982 207.483697,41.0551835 C210.511862,40.323133 213.585563,39.7092481 216.674443,39.2149699 C218.227232,38.8489446 219.710198,38.4540985 221.127895,38.0261083 C222.355858,37.6615241 223.451765,37.136984 224.418653,36.4625752 C224.614459,36.3386454 224.816337,36.1858947 225,36 C224.033112,36.2536238 223.067742,36.3717894 222.100855,36.3717894 C221.643973,36.4337543 221.229593,36.4625752 220.844052,36.4625752 L219.005903,36.4625752 L216.3906,36.3717894 C216.129526,36.4337543 215.839611,36.4625752 215.519339,36.4625752 C212.679391,36.3386454 209.643636,36.6758498 206.424219,37.4756294 C204.616427,37.9036196 202.937655,38.7019581 201.390938,39.8619988 C199.838149,41.1459693 198.812064,42.6489786 198.289915,44.3652624 C198.10018,45.2832076 198,46.1435111 198,46.9432907 C198,47.7373061 198.10018,48.4693566 198.289915,49.1437654 C198.549472,50.365771 198.963852,51.535899 199.551271,52.6339747" id="Shape" fill="#FFFFFF"></path>
            <path d="M22.1154495,147.82038 C23.4576361,148.342948 24.937038,148.702597 26.544192,148.900866 C27.3454033,149.033045 28.1891986,149.033045 29.0582289,148.900866 C30.0692061,148.768687 30.9997467,148.444388 31.8735086,147.923357 C32.4097524,147.460731 32.8781771,146.973513 33.2787827,146.452482 C33.5437502,146.181977 33.7535161,145.923767 33.8828455,145.665557 C34.357579,144.812542 34.652513,143.965674 34.7881511,143.114196 C35.1887568,141.552641 35.0215749,139.883498 34.2834511,138.119063 C33.2787827,136.353092 31.9413277,135.243404 30.2600458,134.780778 C28.7869527,134.264358 27.3454033,134 25.9417064,134 C23.1926686,134 20.6060811,134.330447 18.191407,134.985194 C17.3223767,135.183462 16.4896217,135.404785 15.6773701,135.669143 C14.204277,136.125621 12.7942713,136.611302 11.4568163,137.140017 C13.7358523,136.87566 16.0779757,136.714278 18.4989585,136.654337 C20.9136326,136.522158 23.2920314,136.611302 25.6325776,136.941749 C26.847012,137.140017 27.9494661,137.464317 28.9604433,137.920795 C29.8894067,138.383421 30.4997783,138.970542 30.7647458,139.68523 C31.0297133,140.406066 31.0297133,141.32517 30.7647458,142.42871 C30.7032355,142.825247 30.5675974,143.180286 30.3641402,143.510733 C30.160683,143.965674 29.8894067,144.289974 29.5629289,144.49439 C28.9604433,144.884779 28.0851042,145.041549 26.9447977,144.981608 C25.7382492,144.849429 24.5364323,144.620421 23.3219979,144.289974 C20.8395048,143.576823 18.4311395,142.723808 16.0779757,141.744762 C13.6680332,140.831805 11.3274869,139.980327 9.04214223,139.193401 C8.90650411,139.193401 8.81345004,139.162662 8.73932223,139.10272 C7.66841191,138.77381 6.5959244,138.478713 5.51712815,138.214355 C4.51403689,138.022235 3.54564376,137.920795 2.60406282,137.920795 L2,137.920795 C4.14339783,138.5156 6.22686253,139.463907 8.24093098,140.759568 C10.3228185,141.94303 12.4977601,143.180286 14.776796,144.49439 C16.9895901,145.731646 19.4358079,146.842871 22.1154495,147.82038" id="Shape" fill="#FFFFFF"></path>
            <path d="M4.05449233,135.122212 C5.31137083,134.596151 6.60779158,133.981394 7.93245678,133.264177 C10.5140005,131.711992 13.0842464,130.246973 15.671439,128.879827 C18.368785,127.583025 20.8359386,127.385753 23.0587777,128.300242 C25.2152423,129.405888 27.0793767,131.023831 28.6412953,133.175481 L29,133.562381 C28.6412953,132.201351 28.1286584,130.826558 27.4663258,129.465528 L27.4663258,129.363069 C26.7489165,128.002039 25.7278792,126.795463 24.4046262,125.761692 C22.9641588,124.656047 21.3203311,124.070345 19.4561967,124 C17.5920623,124 15.8818602,124.399133 14.3199416,125.175991 C11.2031653,126.795463 8.55524714,128.658086 6.39878257,130.737862 L3.24387631,133.658723 C2.82444607,134.053269 2.40501583,134.404996 1.98558559,134.727667 C1.32325298,135.253728 0.66092038,135.671212 0,136 L0.992792793,136 C2.01241782,135.802727 3.03345508,135.510641 4.05449233,135.122212" id="Shape" fill="#FFFFFF"></path>
            <path d="M238.112403,159.21477 C237.672296,159.271858 237.226262,159.305525 236.786155,159.305525 C233.949912,159.614386 231.084031,160.021322 228.189996,160.519013 C225.232241,160.958152 222.262632,161.233345 219.304877,161.359232 C216.034454,161.548062 213.574598,160.861541 211.935682,159.305525 C211.866035,159.185494 211.808243,159.055216 211.744524,158.929329 C211.182906,158.18572 210.86431,157.184483 210.794664,155.944648 C210.736872,154.577461 210.962112,153.491324 211.458529,152.678917 C212.027556,151.929453 212.975934,151.461038 214.296254,151.278064 C215.558783,151.152177 216.907258,151.187308 218.353535,151.374674 C221.189779,151.803567 223.940076,152.462275 226.579234,153.330307 C229.28804,154.136859 231.841252,155.040021 234.237389,156.041258 C233.414967,155.480624 232.56439,154.91999 231.678249,154.354964 C230.29421,153.491324 228.818296,152.651105 227.244581,151.838698 C224.721006,150.471511 221.954409,149.385374 218.927007,148.572967 C217.411084,148.133828 215.744013,147.944998 213.919867,148.013797 C213.033726,148.070885 212.125357,148.259715 211.181424,148.572967 C210.167845,149.00186 209.317268,149.660568 208.628212,150.5286 C207.933229,151.40395 207.487195,152.336389 207.301965,153.330307 C207.053015,154.262745 206.955214,155.195184 207.018933,156.127622 C207.018933,157.996891 207.650197,159.832492 208.905317,161.638817 L208.905317,161.731036 C210.484959,163.348532 212.251314,164.314638 214.195489,164.623499 C216.030008,164.995303 217.753389,165.093377 219.393787,164.910403 C222.733857,164.595687 225.853132,164.035052 228.747168,163.222645 C231.647131,162.479036 234.419655,161.70176 237.064741,160.889353 C238.454708,160.519013 239.809111,160.204296 241.127949,159.958378 C242.44827,159.706605 243.738953,159.614386 245,159.677329 C243.737471,159.305525 242.418633,159.118159 241.028666,159.118159 C240.034351,159.118159 239.056336,159.145971 238.112403,159.21477" id="Shape" fill="#FFFFFF"></path>
            <path d="M246.170376,154.473457 C245.847121,154.085931 245.523867,153.72892 245.194485,153.400896 C243.955088,151.969798 242.723351,150.509713 241.483954,149.020639 C239.916707,147.142514 238.222303,145.294902 236.403806,143.483908 C235.230285,142.243521 233.926544,141.082471 232.495646,139.979397 C230.669489,138.549825 228.653362,137.44675 226.439607,136.6717 C224.158442,135.890546 221.843574,135.789851 219.504193,136.37419 C217.290437,137.089739 215.49492,138.191287 214.129898,139.681887 L214.129898,139.782583 C212.764877,141.207578 211.718513,142.696651 211,144.258959 C212.692872,142.571545 214.650782,141.207578 216.864538,140.170108 C217.906305,139.716978 218.983309,139.425571 220.089421,139.294362 C223.470569,139.163152 226.798097,140.461515 230.047492,143.186398 C233.309144,145.784649 236.432914,148.405785 239.43106,151.065064 C240.927834,152.369529 242.459845,153.567196 244.027092,154.670271 C244.607725,154.992191 245.163845,155.314112 245.6786,155.642135 C246.786244,156.290554 247.892356,156.743684 249,157 C248.479116,156.612475 247.964361,156.189858 247.443477,155.736728 C246.983874,155.3431 246.559507,154.926587 246.170376,154.473457" id="Shape" fill="#FFFFFF"></path>
            <path d="M38.8120149,109.108373 C38.1091782,110.0849 37.2718201,110.701169 36.3090095,110.964846 C34.9562378,111.156472 33.4870825,110.935719 31.8803827,110.276526 C30.3341421,109.689383 28.8226654,108.941275 27.3459527,108.030668 C24.3290452,106.138936 21.4360788,104.150624 18.6730994,102.065733 C15.9751135,100.042162 13.2710817,98.0845101 10.5776302,96.1973769 L10.4778728,96.1973769 C9.13114704,95.2929019 7.74361143,94.4436153 6.33944959,93.658715 C5.50058002,93.1972795 4.66775636,92.8078954 3.83039828,92.4905627 C3.1865092,92.2866726 2.57284967,92.1318387 2,92 C3.35126016,92.6469295 4.62694649,93.467089 5.85426557,94.4436153 C7.07705021,95.4186086 8.26355942,96.4610543 9.42135056,97.5694193 C11.8593625,99.7846164 14.3623679,102.065733 16.9424586,104.40817 C19.4409296,106.755205 22.2749484,109.007195 25.4218428,111.156472 C26.9620376,112.258705 28.6624489,113.210704 30.5230767,113.995604 C32.3942848,114.904678 34.5723227,115.192883 37.0828855,114.875551 C38.3631063,114.611873 39.4906679,114.055391 40.4534786,113.210704 C40.8434395,112.887239 41.1623611,112.528515 41.4223351,112.132999 C41.9301913,111.611776 42.3141064,111.061426 42.5725689,110.474284 C43.1514644,109.557545 43.571655,108.521231 43.8301175,107.342348 C44.0840456,106.174195 44.0553275,104.970784 43.73036,103.73058 C43.3464449,102.485777 42.7675494,101.449463 42.0012307,100.598644 C41.2273546,99.8214086 40.4247605,99.162215 39.5919368,98.6471242 C37.8492042,97.5985465 36.1200749,96.8504384 34.3788537,96.401267 C30.9175721,95.4186086 27.5409332,94.8329994 24.2580058,94.6352414 C23.6851561,94.6352414 23.1364901,94.6045812 22.622588,94.5325298 C19.9246021,94.4068231 17.3263737,94.4436153 14.8173224,94.6352414 C17.8342298,95.0246255 20.9221767,95.5811075 24.0690712,96.3000884 C27.2159657,97.0175363 30.3341421,97.9588035 33.4160431,99.1315548 C34.9562378,99.7846164 36.374003,100.569517 37.6602696,101.480124 C39.0130413,102.455117 39.8458649,103.532822 40.1647865,104.707106 C40.4247605,105.815471 40.1058389,107.084802 39.1959299,108.521231 C39.0719889,108.706725 38.9420019,108.910615 38.8120149,109.108373" id="Shape" fill="#FFFFFF"></path>
            <path d="M6.02347402,89.7321925 C8.09375757,89.6097385 10.2006024,89.3677117 12.3363916,88.9902652 C16.6689056,88.1345277 21.0775889,87.4314975 25.5411142,86.8797341 C30.0808088,86.3279707 33.9974379,87.0655761 37.300142,89.0853472 C39.4359312,90.6786901 41.1558356,92.6365138 42.4537617,94.960259 C43.0296022,95.9456537 43.5536475,96.9584205 44,98 C43.8689887,96.1588678 43.4531039,94.296126 42.7386352,92.394487 C42.0957657,90.4366633 40.893813,88.6243438 39.1449642,86.9748161 C37.394592,85.3152039 35.2588028,84.1900675 32.7360731,83.5705942 C30.2118201,83.0188308 27.6829969,82.8675641 25.1541737,83.1153534 C20.2397258,83.7276235 15.7396392,84.769203 11.6523907,86.2328887 C9.58058373,86.9748161 7.61084375,87.611577 5.72489007,88.1691029 C4.36907523,88.5955311 3.04068137,88.9052677 1.74427864,89.0853472 C1.16691479,89.2034793 0.583457397,89.2711891 0,89.2711891 C1.87528996,89.7610052 3.88006786,89.9079501 6.02347402,89.7321925" id="Shape" fill="#FFFFFF"></path>
        </g>
    </g>
</svg>