<svg xmlns="http://www.w3.org/2000/svg" version="1.1" xmlns:xlink="http://www.w3.org/1999/xlink" xmlns:svgjs="http://svgjs.com/svgjs" width="1440" height="250" preserveAspectRatio="none" viewBox="0 0 1440 250"><g mask="url(&quot;#SvgjsMask1006&quot;)" fill="none"><path d="M4 250L254 0L327.5 0L77.5 250z" fill="url(#SvgjsLinearGradient1007)"></path><path d="M273.6 250L523.6 0L771.1 0L521.1 250z" fill="url(#SvgjsLinearGradient1007)"></path><path d="M496.20000000000005 250L746.2 0L821.2 0L571.2 250z" fill="url(#SvgjsLinearGradient1007)"></path><path d="M745.8000000000001 250L995.8000000000001 0L1298.8000000000002 0L1048.8000000000002 250z" fill="url(#SvgjsLinearGradient1007)"></path><path d="M1418 250L1168 0L1022.5 0L1272.5 250z" fill="url(#SvgjsLinearGradient1008)"></path><path d="M1165.4 250L915.4000000000001 0L559.9000000000001 0L809.9000000000001 250z" fill="url(#SvgjsLinearGradient1008)"></path><path d="M933.8 250L683.8 0L463.29999999999995 0L713.3 250z" fill="url(#SvgjsLinearGradient1008)"></path><path d="M707.1999999999999 250L457.19999999999993 0L134.69999999999993 0L384.69999999999993 250z" fill="url(#SvgjsLinearGradient1008)"></path><path d="M1234.7407339502001 250L1440 44.740733950200166L1440 250z" fill="url(#SvgjsLinearGradient1007)"></path><path d="M0 250L205.25926604979983 250L 0 44.740733950200166z" fill="url(#SvgjsLinearGradient1008)"></path></g><defs><mask id="SvgjsMask1006"><rect width="1440" height="250" fill="#ffffff"></rect></mask><linearGradient x1="0%" y1="100%" x2="100%" y2="0%" id="SvgjsLinearGradient1007"><stop stop-color="rgba(255, 255, 255, 0.2)" offset="0"></stop><stop stop-opacity="0" stop-color="rgba(255, 255, 255, 0.2)" offset="0.66"></stop></linearGradient><linearGradient x1="100%" y1="100%" x2="0%" y2="0%" id="SvgjsLinearGradient1008"><stop stop-color="rgba(255, 255, 255, 0.2)" offset="0"></stop><stop stop-opacity="0" stop-color="rgba(255, 255, 255, 0.2)" offset="0.66"></stop></linearGradient></defs></svg>